<?xml version="1.0" encoding="UTF-8" standalone="no"?>
<!-- Created with Inkscape (http://www.inkscape.org/) -->

<svg
   width="75.948074mm"
   height="34.389572mm"
   viewBox="0 0 75.948074 34.389572"
   version="1.1"
   id="svg5731"
   xmlns:xlink="http://www.w3.org/1999/xlink"
   xmlns="http://www.w3.org/2000/svg"
   xmlns:svg="http://www.w3.org/2000/svg">
  <defs
     id="defs5728">
    <linearGradient
       id="linearGradient18324">
      <stop
         style="stop-color:#a8ba3d;stop-opacity:1;"
         offset="0"
         id="stop18320" />
      <stop
         style="stop-color:#3e460d;stop-opacity:1;"
         offset="1"
         id="stop18322" />
    </linearGradient>
    <linearGradient
       id="linearGradient18302">
      <stop
         style="stop-color:#fff0a2;stop-opacity:1;"
         offset="0"
         id="stop18298" />
      <stop
         style="stop-color:#eb8500;stop-opacity:1;"
         offset="1"
         id="stop18300" />
    </linearGradient>
    <linearGradient
       xlink:href="#linearGradient18302"
       id="linearGradient18304"
       x1="130.06468"
       y1="25.791864"
       x2="180.35881"
       y2="91.376884"
       gradientUnits="userSpaceOnUse" />
    <linearGradient
       xlink:href="#linearGradient18324"
       id="linearGradient18326"
       x1="177.96385"
       y1="40.530071"
       x2="188.28061"
       y2="53.610229"
       gradientUnits="userSpaceOnUse" />
    <linearGradient
       xlink:href="#linearGradient18324"
       id="linearGradient561"
       gradientUnits="userSpaceOnUse"
       x1="177.96385"
       y1="40.530071"
       x2="188.28061"
       y2="53.610229" />
    <linearGradient
       xlink:href="#linearGradient18324"
       id="linearGradient563"
       gradientUnits="userSpaceOnUse"
       x1="177.96385"
       y1="40.530071"
       x2="188.28061"
       y2="53.610229" />
    <linearGradient
       xlink:href="#linearGradient18302"
       id="linearGradient565"
       gradientUnits="userSpaceOnUse"
       x1="130.06468"
       y1="25.791864"
       x2="180.35881"
       y2="91.376884" />
    <linearGradient
       xlink:href="#linearGradient18302"
       id="linearGradient567"
       gradientUnits="userSpaceOnUse"
       x1="130.06468"
       y1="25.791864"
       x2="180.35881"
       y2="91.376884" />
    <linearGradient
       xlink:href="#linearGradient18302"
       id="linearGradient569"
       gradientUnits="userSpaceOnUse"
       x1="130.06468"
       y1="25.791864"
       x2="180.35881"
       y2="91.376884" />
    <linearGradient
       xlink:href="#linearGradient18302"
       id="linearGradient571"
       gradientUnits="userSpaceOnUse"
       x1="130.06468"
       y1="25.791864"
       x2="180.35881"
       y2="91.376884" />
    <linearGradient
       xlink:href="#linearGradient18302"
       id="linearGradient573"
       gradientUnits="userSpaceOnUse"
       x1="130.06468"
       y1="25.791864"
       x2="180.35881"
       y2="91.376884" />
    <linearGradient
       xlink:href="#linearGradient18302"
       id="linearGradient575"
       gradientUnits="userSpaceOnUse"
       x1="130.06468"
       y1="25.791864"
       x2="180.35881"
       y2="91.376884" />
    <linearGradient
       xlink:href="#linearGradient18302"
       id="linearGradient577"
       gradientUnits="userSpaceOnUse"
       x1="130.06468"
       y1="25.791864"
       x2="180.35881"
       y2="91.376884" />
    <linearGradient
       xlink:href="#linearGradient18302"
       id="linearGradient579"
       gradientUnits="userSpaceOnUse"
       x1="130.06468"
       y1="25.791864"
       x2="180.35881"
       y2="91.376884" />
    <linearGradient
       xlink:href="#linearGradient18302"
       id="linearGradient581"
       gradientUnits="userSpaceOnUse"
       x1="130.06468"
       y1="25.791864"
       x2="180.35881"
       y2="91.376884" />
    <linearGradient
       xlink:href="#linearGradient18302"
       id="linearGradient583"
       gradientUnits="userSpaceOnUse"
       x1="130.06468"
       y1="25.791864"
       x2="180.35881"
       y2="91.376884" />
    <linearGradient
       xlink:href="#linearGradient18302"
       id="linearGradient585"
       gradientUnits="userSpaceOnUse"
       x1="130.06468"
       y1="25.791864"
       x2="180.35881"
       y2="91.376884" />
    <linearGradient
       xlink:href="#linearGradient18302"
       id="linearGradient587"
       gradientUnits="userSpaceOnUse"
       x1="130.06468"
       y1="25.791864"
       x2="180.35881"
       y2="91.376884" />
    <linearGradient
       xlink:href="#linearGradient18302"
       id="linearGradient589"
       gradientUnits="userSpaceOnUse"
       x1="130.06468"
       y1="25.791864"
       x2="180.35881"
       y2="91.376884" />
    <linearGradient
       xlink:href="#linearGradient18302"
       id="linearGradient591"
       gradientUnits="userSpaceOnUse"
       x1="130.06468"
       y1="25.791864"
       x2="180.35881"
       y2="91.376884" />
    <linearGradient
       xlink:href="#linearGradient18302"
       id="linearGradient593"
       gradientUnits="userSpaceOnUse"
       x1="130.06468"
       y1="25.791864"
       x2="180.35881"
       y2="91.376884" />
    <linearGradient
       xlink:href="#linearGradient18302"
       id="linearGradient595"
       gradientUnits="userSpaceOnUse"
       x1="130.06468"
       y1="25.791864"
       x2="180.35881"
       y2="91.376884" />
    <linearGradient
       xlink:href="#linearGradient18302"
       id="linearGradient597"
       gradientUnits="userSpaceOnUse"
       x1="130.06468"
       y1="25.791864"
       x2="180.35881"
       y2="91.376884" />
    <linearGradient
       xlink:href="#linearGradient18302"
       id="linearGradient599"
       gradientUnits="userSpaceOnUse"
       x1="130.06468"
       y1="25.791864"
       x2="180.35881"
       y2="91.376884" />
    <linearGradient
       xlink:href="#linearGradient18302"
       id="linearGradient601"
       gradientUnits="userSpaceOnUse"
       x1="130.06468"
       y1="25.791864"
       x2="180.35881"
       y2="91.376884" />
    <linearGradient
       xlink:href="#linearGradient18302"
       id="linearGradient603"
       gradientUnits="userSpaceOnUse"
       x1="130.06468"
       y1="25.791864"
       x2="180.35881"
       y2="91.376884" />
    <linearGradient
       xlink:href="#linearGradient18302"
       id="linearGradient605"
       gradientUnits="userSpaceOnUse"
       x1="130.06468"
       y1="25.791864"
       x2="180.35881"
       y2="91.376884" />
    <linearGradient
       xlink:href="#linearGradient18302"
       id="linearGradient607"
       gradientUnits="userSpaceOnUse"
       x1="130.06468"
       y1="25.791864"
       x2="180.35881"
       y2="91.376884" />
    <linearGradient
       xlink:href="#linearGradient18302"
       id="linearGradient609"
       gradientUnits="userSpaceOnUse"
       x1="130.06468"
       y1="25.791864"
       x2="180.35881"
       y2="91.376884" />
    <linearGradient
       xlink:href="#linearGradient18302"
       id="linearGradient611"
       gradientUnits="userSpaceOnUse"
       x1="130.06468"
       y1="25.791864"
       x2="180.35881"
       y2="91.376884" />
    <linearGradient
       xlink:href="#linearGradient18302"
       id="linearGradient613"
       gradientUnits="userSpaceOnUse"
       x1="130.06468"
       y1="25.791864"
       x2="180.35881"
       y2="91.376884" />
    <linearGradient
       xlink:href="#linearGradient18302"
       id="linearGradient615"
       gradientUnits="userSpaceOnUse"
       x1="130.06468"
       y1="25.791864"
       x2="180.35881"
       y2="91.376884" />
    <linearGradient
       xlink:href="#linearGradient18302"
       id="linearGradient617"
       gradientUnits="userSpaceOnUse"
       x1="130.06468"
       y1="25.791864"
       x2="180.35881"
       y2="91.376884" />
    <linearGradient
       xlink:href="#linearGradient18302"
       id="linearGradient619"
       gradientUnits="userSpaceOnUse"
       x1="130.06468"
       y1="25.791864"
       x2="180.35881"
       y2="91.376884" />
    <linearGradient
       xlink:href="#linearGradient18302"
       id="linearGradient621"
       gradientUnits="userSpaceOnUse"
       x1="130.06468"
       y1="25.791864"
       x2="180.35881"
       y2="91.376884" />
    <linearGradient
       xlink:href="#linearGradient18302"
       id="linearGradient623"
       gradientUnits="userSpaceOnUse"
       x1="130.06468"
       y1="25.791864"
       x2="180.35881"
       y2="91.376884" />
    <linearGradient
       xlink:href="#linearGradient18302"
       id="linearGradient625"
       gradientUnits="userSpaceOnUse"
       x1="130.06468"
       y1="25.791864"
       x2="180.35881"
       y2="91.376884" />
    <linearGradient
       xlink:href="#linearGradient18302"
       id="linearGradient627"
       gradientUnits="userSpaceOnUse"
       x1="130.06468"
       y1="25.791864"
       x2="180.35881"
       y2="91.376884" />
    <linearGradient
       xlink:href="#linearGradient18302"
       id="linearGradient629"
       gradientUnits="userSpaceOnUse"
       x1="130.06468"
       y1="25.791864"
       x2="180.35881"
       y2="91.376884" />
    <linearGradient
       xlink:href="#linearGradient18302"
       id="linearGradient631"
       gradientUnits="userSpaceOnUse"
       x1="130.06468"
       y1="25.791864"
       x2="180.35881"
       y2="91.376884" />
    <linearGradient
       xlink:href="#linearGradient18302"
       id="linearGradient633"
       gradientUnits="userSpaceOnUse"
       x1="130.06468"
       y1="25.791864"
       x2="180.35881"
       y2="91.376884" />
    <linearGradient
       xlink:href="#linearGradient18302"
       id="linearGradient635"
       gradientUnits="userSpaceOnUse"
       x1="130.06468"
       y1="25.791864"
       x2="180.35881"
       y2="91.376884" />
    <linearGradient
       xlink:href="#linearGradient18302"
       id="linearGradient637"
       gradientUnits="userSpaceOnUse"
       x1="130.06468"
       y1="25.791864"
       x2="180.35881"
       y2="91.376884" />
    <linearGradient
       xlink:href="#linearGradient18302"
       id="linearGradient639"
       gradientUnits="userSpaceOnUse"
       x1="130.06468"
       y1="25.791864"
       x2="180.35881"
       y2="91.376884" />
    <linearGradient
       xlink:href="#linearGradient18302"
       id="linearGradient641"
       gradientUnits="userSpaceOnUse"
       x1="130.06468"
       y1="25.791864"
       x2="180.35881"
       y2="91.376884" />
    <linearGradient
       xlink:href="#linearGradient18302"
       id="linearGradient643"
       gradientUnits="userSpaceOnUse"
       x1="130.06468"
       y1="25.791864"
       x2="180.35881"
       y2="91.376884" />
    <linearGradient
       xlink:href="#linearGradient18302"
       id="linearGradient645"
       gradientUnits="userSpaceOnUse"
       x1="130.06468"
       y1="25.791864"
       x2="180.35881"
       y2="91.376884" />
    <linearGradient
       xlink:href="#linearGradient18302"
       id="linearGradient647"
       gradientUnits="userSpaceOnUse"
       x1="130.06468"
       y1="25.791864"
       x2="180.35881"
       y2="91.376884" />
  </defs>
  <g
     id="layer3"
     style="display:inline"
     transform="translate(-163.28788,-43.629776)">
    <g
       id="g18318"
       style="opacity:0.322981;fill:url(#linearGradient18326);fill-opacity:1"
       transform="matrix(0.65089365,0,0,0.61628986,79.788226,20.657745)">
      <path
         id="path10053"
         style="fill:url(#linearGradient561);fill-opacity:1;stroke:none;stroke-width:0;stroke-dasharray:none"
         d="m 187.60405,37.274727 c -0.21925,-3.83e-4 -0.43912,0.01566 -0.62683,5.17e-4 -4.883,0.09187 -9.08751,3.214491 -12.33103,6.606315 -2.14722,2.331624 -3.95577,5.145546 -4.52737,8.295618 0.44502,0.754275 1.54012,0.280777 2.22156,0.702799 1.88387,-0.136272 3.72028,-0.84524 5.49889,-1.474328 0.74605,-0.220776 1.31225,-0.723847 1.74925,-1.313615 2.76658,-1.80049 5.25657,-4.12397 7.09363,-6.875033 1.00966,-1.681279 1.86614,-3.609095 1.85725,-5.588289 -0.20678,-0.307844 -0.56993,-0.353344 -0.93535,-0.353984 z" />
      <path
         style="fill:url(#linearGradient563);fill-opacity:1;stroke:#008000;stroke-width:0;stroke-dasharray:none;stroke-opacity:1"
         id="path11848"
         d="m 171.98667,52.819522 c 0.56934,0.0127 1.13887,0.02916 1.7084,0.02779 0.44557,0.0046 0.88729,-0.0423 1.32373,-0.128529 0.40279,-0.09213 0.79771,-0.214204 1.19512,-0.32647 0.35397,-0.100216 0.70915,-0.195902 1.06089,-0.303802 0.38194,-0.115655 0.75062,-0.269208 1.11455,-0.431782 0.35622,-0.15444 0.7025,-0.32934 1.04536,-0.511124 0.33563,-0.178737 0.6627,-0.372026 0.98295,-0.576885 0.32827,-0.215574 0.65004,-0.440907 0.96612,-0.673938 0.26459,-0.197409 0.52986,-0.393912 0.79123,-0.595593 0.31461,-0.24234 0.62005,-0.496171 0.91753,-0.75918 0.40494,-0.35035 0.77032,-0.741791 1.13078,-1.136713 0.36315,-0.398563 0.70872,-0.812099 1.03033,-1.24482 0.26974,-0.362492 0.50999,-0.745328 0.75414,-1.125127 0.24908,-0.388422 0.48252,-0.786524 0.71467,-1.185199 0.22597,-0.38441 0.42328,-0.784076 0.60815,-1.189521 0.17721,-0.394867 0.33413,-0.798539 0.4844,-1.204304 0.15017,-0.405151 0.28707,-0.815009 0.42821,-1.223344 0.126,-0.36133 0.24662,-0.724556 0.35246,-1.092329 0.0784,-0.297675 0.15121,-0.598665 0.17371,-0.906217 -0.0631,-0.291862 0.0138,-0.11752 -0.48612,-0.30095 0.0791,-0.491236 -0.61563,-0.60307 -0.69471,-0.111834 v 0 c -0.53697,0.0956 -0.41763,-0.05936 -0.55468,0.191339 -0.0467,0.213579 -0.0705,0.432339 -0.135,0.642218 -0.0958,0.337518 -0.20924,0.669665 -0.32371,1.001228 -0.13697,0.396306 -0.26977,0.794115 -0.41534,1.187384 -0.13527,0.365834 -0.27585,0.729974 -0.43387,1.086657 -0.16086,0.354412 -0.33341,0.703529 -0.5292,1.040156 -0.21574,0.37833 -0.43402,0.755512 -0.66961,1.121934 -0.21866,0.346728 -0.43901,0.692613 -0.68016,1.024345 -0.28561,0.38581 -0.5869,0.759142 -0.91178,1.11289 -0.31879,0.349396 -0.63832,0.69845 -0.99071,1.01486 -0.26835,0.237712 -0.54045,0.471268 -0.82474,0.689885 -0.25375,0.196067 -0.51183,0.38645 -0.7675,0.579977 -0.28274,0.21403 -0.57351,0.417246 -0.86896,0.613323 -0.27859,0.183108 -0.56478,0.353925 -0.85832,0.512109 -0.3046,0.166015 -0.61544,0.319781 -0.93279,0.460063 -0.30597,0.137046 -0.61471,0.267599 -0.93272,0.374634 -0.33661,0.112011 -0.67659,0.212484 -1.01752,0.310525 -0.35833,0.108908 -0.71587,0.221057 -1.07764,0.318106 -0.32704,0.08245 -0.66021,0.131702 -0.9978,0.142023 -0.55671,0.01905 -1.11356,0.03218 -1.67035,0.04846 -1.08028,-0.0067 -1.08978,1.521026 -0.009,1.527747 z" />
    </g>
    <g
       id="g18296"
       style="opacity:0.322981;fill:url(#linearGradient18304);fill-opacity:1"
       transform="matrix(0.65089365,0,0,0.61628986,79.788226,20.657745)">
      <path
         id="path9911"
         style="fill:url(#linearGradient565);fill-opacity:1;stroke:none;stroke-width:0;stroke-dasharray:none"
         d="m 146.57452,38.076746 c -0.0354,-0.0018 -0.0714,-0.0017 -0.10749,5.16e-4 -0.87296,0.09082 -2.42624,0.554287 -2.23914,1.677417 0.20413,0.766477 1.17576,0.78428 1.32808,0.0021 1.60959,0.08125 3.03585,1.036545 4.50929,1.675867 0.0382,-0.007 0.0785,-0.01068 0.12092,-0.01085 0.21781,-8.77e-4 0.48826,0.09172 0.7798,0.311609 0.10678,0.08053 0.21499,0.159392 0.32401,0.236678 l 5.2e-4,5.17e-4 c 1.47328,0.664544 3.01485,1.185782 4.50825,1.798856 0.0697,-0.02149 0.13229,-0.03349 0.18397,-0.03359 0.10673,-2.12e-4 0.16766,0.05013 0.15296,0.171049 0.53714,0.227307 1.0665,0.469414 1.58285,0.737422 0.0602,0.384642 0.0955,0.770901 0.11575,1.158069 0.009,0.01418 0.0184,0.0288 0.0284,0.04444 -0.009,0.0069 -0.0166,0.01335 -0.0253,0.02015 0.0991,2.088582 -0.28255,4.208142 -0.1974,6.302457 -0.0372,5.552702 -0.12939,11.117533 0.0656,16.669267 0.10707,-3.388249 0.23931,-6.775684 0.37155,-10.163204 0.0875,-2.539918 0.11143,-5.087021 0.33952,-7.619173 h 5.1e-4 c 0.0498,-0.552519 0.32457,-0.819927 0.58963,-0.810286 0.26506,0.0096 0.5201,0.2959 0.5302,0.850594 0.009,0.506382 0.0125,1.01278 0.0129,1.519287 0.0466,-1.385787 0.0991,-2.771404 0.16795,-4.156336 0.006,-0.127212 0.0271,-0.237801 0.0584,-0.332279 -0.0536,-0.201518 -0.10711,-0.403143 -0.16071,-0.604614 -0.0816,-0.585472 -0.13018,-1.177034 -0.2403,-1.757516 -0.07,-0.04875 -0.14245,-0.106614 -0.216,-0.174666 -0.52461,-0.485382 -1.05293,-0.963441 -1.60869,-1.413351 -0.82258,-0.623893 -1.66297,-1.224588 -2.50269,-1.825211 -0.0936,-0.152113 -0.187,-0.30419 -0.2806,-0.456303 -0.0896,-0.145666 -0.15396,-0.257083 -0.18862,-0.341581 -2.44781,-1.052373 -4.88092,-2.139956 -7.29516,-3.268018 -0.22823,-0.09314 -0.46089,-0.196703 -0.709,-0.209289 z m 11.81736,5.078243 c 0.002,0.0011 0.003,0.0032 0.005,0.0036 0.61719,0.508624 1.2633,1.028858 1.68104,1.722375 0.0893,0.1482 0.14946,0.285534 0.185,0.409278 0.25985,0.445003 0.38273,0.970971 0.40308,1.484147 0.009,0.233631 -0.0163,0.467575 -0.0243,0.701249 -0.0303,0.133526 -0.0609,0.267044 -0.0909,0.400492 0.10692,0.125067 0.1835,0.322243 0.19068,0.596346 0.0673,2.563094 0.0235,5.126983 -0.0217,7.68997 -0.0973,4.155904 -0.14404,8.313066 -0.13074,12.47004 0.0232,3.340867 0.0777,6.681959 0.17053,10.021611 0.0251,1.186283 0.0765,2.372752 0.0775,3.559472 9e-5,0.07319 0.003,0.146737 0.006,0.220142 0.12984,0.169807 0.22166,0.42315 0.23668,0.760677 0.004,0.0893 0.005,0.152558 0.005,0.219108 0.0865,-0.02524 0.1733,-0.04717 0.26252,-0.04651 0.0759,5.36e-4 0.15093,0.01296 0.22531,0.02946 0.001,-0.120582 0.002,-0.241194 0.003,-0.361735 0.004,-0.74154 0.0183,-1.483085 0.0103,-2.22467 0.004,-0.203847 0.0108,-0.407535 0.016,-0.611333 -0.0888,-0.07264 -0.1628,-0.212858 -0.18811,-0.423746 -0.086,-0.715849 -0.19755,-1.429197 -0.25735,-2.147673 -0.1173,-1.40795 -0.1452,-3.437524 -0.1788,-4.841565 0.0497,-4.951679 0.16795,-9.9034 0.45631,-14.847672 0.10272,-1.802481 0.2116,-3.603328 0.33693,-5.404322 0.0435,-0.62492 0.0739,-1.286508 0.14728,-1.913061 0.0156,-0.133712 0.0432,-0.265605 0.0651,-0.398426 h -5.2e-4 c 0.0746,-0.450673 0.26847,-0.683682 0.46199,-0.69143 0.0569,-0.0023 0.11358,0.01734 0.16743,0.05426 0.007,-0.735931 0.019,-1.473641 0.13901,-2.200382 0.004,-0.02642 0.009,-0.05137 0.015,-0.07648 -0.005,-0.01216 -0.009,-0.02456 -0.0129,-0.03669 -0.0827,-0.578496 0.30177,-1.454045 0.12247,-2.027266 -0.134,-0.07614 -0.27084,-0.147446 -0.39998,-0.231511 -0.0943,-0.133651 -0.0722,-0.07252 -0.0574,-0.239778 -0.0454,-0.01771 -0.0931,-0.03414 -0.14624,-0.04754 -1.29681,-0.51462 -2.59049,-1.038188 -3.87987,-1.570446 z m 0.82476,22.364009 c -0.061,1.817499 -0.1207,3.635045 -0.17157,5.452897 -0.0645,1.992538 -0.0711,3.987463 -0.15348,5.97948 -0.004,0.09927 -0.007,0.198757 -0.0103,0.298173 0.0359,0.0267 0.0719,0.05295 0.11162,0.07648 0.29228,2.109295 0.29007,4.257413 0.38964,6.38359 0.0244,-0.312287 0.0584,-0.691151 0.0863,-0.763261 0.012,-0.03092 0.0259,-0.06076 0.0413,-0.08992 -0.0111,-0.20139 -0.01,-0.404442 -0.0207,-0.605648 -0.0628,-1.185736 -0.0841,-2.373514 -0.12816,-3.559989 -0.0845,-3.351398 -0.15323,-6.703669 -0.16433,-10.056234 5e-4,-1.038686 0.007,-2.077104 0.0196,-3.115572 z" />
      <path
         id="path9962"
         style="fill:url(#linearGradient567);fill-opacity:1;stroke:none;stroke-width:0;stroke-dasharray:none"
         d="m 150.54998,83.16495 c -0.16491,-2.77e-4 -0.32988,0.109298 -0.35088,0.341581 -0.45088,0.03276 -0.34835,-0.0084 -0.41083,0.357601 -0.007,0.316621 0.005,0.633784 0.0109,0.950329 0.0113,0.374299 0.0309,0.748306 0.0563,1.121896 0.0267,-0.02587 0.0533,-0.05179 0.0796,-0.07803 0.2187,-0.22756 0.4165,-0.47351 0.59532,-0.733288 0.0222,-0.03366 0.0437,-0.06777 0.0646,-0.10232 0.004,-0.61723 0.0113,-1.234389 0.0212,-1.851566 -0.0218,-0.004 -0.044,-0.0062 -0.0661,-0.0062 z" />
      <path
         id="path9968"
         style="fill:url(#linearGradient569);fill-opacity:1;stroke:#878787;stroke-width:0;stroke-dasharray:none;stroke-opacity:1"
         d="m 139.22354,39.308195 c -1.65645,0.956556 -2.8624,2.583586 -4.23333,3.906222 -5.50296,5.803572 -7.55129,14.312119 -6.39341,22.114929 0.87264,4.886563 3.42245,9.373416 6.59185,13.139249 3.17144,3.523289 7.42797,5.953453 11.83958,7.583517 0.63768,0.148967 1.56998,0.571182 2.26912,0.387573 0.21913,-0.186389 0.43374,-0.37802 0.63768,-0.58136 0.0105,-0.01089 0.0206,-0.0221 0.031,-0.03307 0.1969,-0.723171 -0.18286,-1.68497 0.40411,-2.189013 0.0864,-0.0085 0.166,-0.02647 0.23978,-0.05116 0.004,-0.292982 0.008,-0.585985 0.0129,-0.879016 0.0228,-1.111421 0.0496,-2.22327 0.0729,-3.33468 0.005,-0.950649 -0.004,-1.901181 -0.0475,-2.850989 -0.0501,-1.105315 -0.1039,-2.210357 -0.1447,-3.316077 -0.0386,-1.043146 -0.0782,-2.086565 -0.0842,-3.130558 -0.009,-1.120889 -0.0164,-2.241732 -0.0284,-3.362585 -0.0188,-1.324952 -0.0427,-2.649735 -0.0749,-3.974435 -0.027,-1.258434 -0.0647,-2.517161 -0.0651,-3.775997 0.01,-1.2359 0.031,-2.471213 0.0625,-3.70675 0.01,-1.115801 7.6e-4,-2.231949 -0.0202,-3.3476 -0.0181,-0.766257 -0.061,-1.535859 -0.0176,-2.301151 h 5.2e-4 c 8.7e-4,-0.01542 0.002,-0.02993 0.004,-0.04496 -0.11024,-0.241821 -0.24889,-0.471819 -0.42581,-0.684712 -0.20351,-0.763495 -1.196,-0.623744 -1.61282,-1.223181 -2.82222,-2.214409 -5.26747,-4.967553 -8.02949,-7.180441 0.0189,-0.535141 -0.39857,-1.195321 -0.98805,-1.163753 z m 0.71727,2.94504 c 0.62819,0.192204 -0.55336,0.879751 -0.16588,0.107487 0.0394,-0.04358 0.0969,-0.11485 0.16588,-0.107487 z m -2.77709,3.132108 c 0.78055,0.301704 -0.31066,0.662037 -0.18862,0.100769 0.0369,-0.06661 0.11256,-0.108082 0.18862,-0.100769 z" />
      <path
         id="path9970"
         style="fill:url(#linearGradient571);fill-opacity:1;stroke:none;stroke-width:0;stroke-dasharray:none"
         d="m 150.94169,37.635946 c -0.55884,3.2e-5 -1.02254,0.09226 -0.88625,0.559655 0.0991,-0.139798 0.28723,-0.230104 0.54674,-0.234094 0.17683,-0.0027 0.38684,0.03475 0.62425,0.123507 0.56056,0.209581 1.10173,0.466832 1.64848,0.709517 0.57866,0.246567 1.14571,0.519357 1.71927,0.777214 0.56909,0.266257 1.13591,0.535681 1.71514,0.77928 0.64569,0.256298 1.29374,0.50602 1.93425,0.775147 0.52354,0.221803 1.03913,0.462146 1.56166,0.686263 0.35249,0.149361 0.71544,0.271808 1.08107,0.384473 0.33109,0.102984 0.66641,0.192111 0.99891,0.290421 0.13078,0.05034 0.27463,0.08154 0.41083,0.127124 0.0226,-0.0011 0.0444,-0.0033 0.0682,-0.0026 0.0413,0.0013 0.0845,0.0055 0.12919,0.0124 0.15997,-0.165704 0.33763,-0.283801 0.47646,-0.281637 0.12255,0.0019 0.21494,0.098 0.23823,0.337447 0.008,0.08015 0.0155,0.160215 0.0232,0.240296 0.13584,0.06916 0.27131,0.139307 0.40566,0.211356 0.23077,-0.105414 0.2812,-0.160385 0.3328,-0.165881 0.0427,-0.0046 0.086,0.02518 0.23254,0.08837 0.21448,0.09249 0.37106,0.210561 0.47801,0.339514 0.0101,-0.0015 0.0222,-0.0052 0.0315,-0.0057 0.19964,-0.01113 0.22154,0.193176 0.15141,0.449585 v 5.17e-4 c 0.41674,0.258926 0.82423,0.531934 1.21957,0.822689 0.35124,0.260049 0.66945,0.557851 0.95859,0.8847 0.28916,0.32105 0.47699,0.687189 0.60048,1.097608 0.11469,0.58366 0.11296,1.182136 0.12196,1.774568 0.0125,0.797149 -0.009,1.594178 -0.0248,2.391069 -0.0198,0.976754 -0.0625,1.952866 -0.10026,2.92902 -0.009,0.220596 -0.0186,0.440971 -0.0289,0.661459 0.0152,0.582027 0.0294,1.164225 0.0481,1.746146 0.10708,2.381655 0.10775,4.766924 0.13695,7.150468 0.003,2.231713 -0.003,4.463633 0.0264,6.695199 0.0211,1.870799 0.0896,3.74117 0.1478,5.611027 0.0261,1.280265 0.0666,2.560003 0.11678,3.839559 0.0198,0.437818 0.0358,0.875657 0.0491,1.313615 0.0163,-0.01058 0.0323,-0.02143 0.0486,-0.03204 -0.008,-0.724114 -0.0182,-1.44828 -0.0145,-2.172477 0.001,-0.887583 -0.005,-1.774923 -0.0217,-2.66237 -0.0169,-0.936343 -0.0228,-1.872824 -0.0419,-2.809131 -0.0208,-0.926389 -0.0489,-1.8523 -0.0879,-2.778125 -0.0281,-1.003246 -0.0499,-2.006985 -0.0351,-3.010669 0.0121,-1.067651 0.0266,-2.135686 0.077,-3.202388 0.0444,-1.07055 0.10298,-2.14038 0.17208,-3.209623 0.0768,-1.114759 0.17579,-2.227576 0.27079,-3.340882 0.11124,-1.174663 0.2123,-2.349927 0.3085,-3.525883 0.002,-0.02892 0.004,-0.0579 0.006,-0.08682 -0.14443,-0.07995 -0.30898,-0.124855 -0.48783,-0.120923 -0.32088,-1.961836 -0.16855,-3.962056 -0.0222,-5.948474 -0.1002,-0.157828 -0.1767,-0.369445 -0.21084,-0.637171 -0.0607,-0.476168 -0.0987,-0.954484 -0.14728,-1.431953 -0.0391,-0.339364 -0.0674,-0.681309 -0.14055,-1.015442 -0.0396,-0.178942 -0.10977,-0.346326 -0.19327,-0.508496 -0.10349,-0.136568 -0.11434,-0.218264 -0.0703,-0.315743 -0.43344,-0.197234 -0.86886,-0.389661 -1.30173,-0.588078 -0.2999,-0.137461 -0.48338,-0.316596 -0.56741,-0.49351 -3.79717,-1.591052 -7.37146,-3.726686 -11.27528,-5.059123 -0.68461,-0.177689 -1.39626,-0.154384 -2.09703,-0.150378 -0.29244,0.05267 -0.86286,-0.01967 -1.35858,-0.01964 z m 14.28698,14.389819 c -0.009,0.0044 -0.0168,0.0087 -0.0248,0.01292 0.006,0.08838 0.0122,0.176726 0.0181,0.2651 0.003,-0.09265 0.004,-0.185358 0.007,-0.278019 z m 1.6459,24.762313 c -0.0212,0.02612 -0.0612,0.0771 -0.0992,0.125057 0.004,0.06684 0.008,0.133663 0.0119,0.200504 0.0217,0.396435 0.0398,0.793021 0.0589,1.189592 0.0225,0.218513 0.0336,0.438898 0.0326,0.661975 0.005,0.112453 0.009,0.224984 0.014,0.337447 0.0706,0.696728 0.0507,1.430682 0.14676,2.129069 0.002,-8.96e-4 0.003,-0.0017 0.005,-0.0026 -0.0314,-0.647703 -0.0628,-1.295463 -0.0842,-1.94355 -0.0352,-0.898917 -0.0605,-1.798266 -0.0858,-2.69751 z" />
      <path
         id="path9972"
         style="fill:url(#linearGradient573);fill-opacity:1;stroke:none;stroke-width:0;stroke-dasharray:none"
         d="m 176.67294,53.406042 c -0.48574,-0.0083 -0.96827,0.265734 -1.44643,0.343649 -1.26031,0.03699 -2.00938,0.789803 -1.56631,2.058789 0.2054,4.950768 0.53739,9.925268 0.29042,14.882812 -0.0165,0.291957 -0.0416,0.589059 -0.0677,0.887801 0.12213,0.131265 0.20946,0.351291 0.21497,0.658875 0.012,0.666529 0.0411,1.333219 0.0517,1.999878 -1e-4,0.09916 8e-5,0.198461 5.1e-4,0.297656 0.36177,-0.56254 0.70983,-1.133857 1.05989,-1.703772 0.0815,-0.129568 0.16146,-0.260053 0.24133,-0.390674 1.0281,-4.256602 1.82014,-8.599246 2.00608,-12.976985 -0.0655,-2.003352 0.13335,-4.15369 -0.5762,-6.035808 -0.0695,-0.01412 -0.13886,-0.02103 -0.20825,-0.02222 z" />
      <path
         id="path9974"
         style="display:inline;fill:url(#linearGradient575);fill-opacity:1;stroke:none;stroke-width:0;stroke-dasharray:none"
         d="m 143.26051,40.836784 -0.008,10e-4 c -0.91347,0.55917 0.45676,1.286398 0.81132,1.76165 1.30284,1.21002 2.65206,2.40303 3.74448,3.795634 1.1487,0.839781 2.63295,1.419972 3.49746,2.505273 0.008,0.06315 0.0139,0.126478 0.0217,0.189653 0.065,0.127311 0.11853,0.28511 0.15297,0.474906 0.1372,0.756449 0.15538,1.529974 0.18758,2.296501 0.0534,1.130469 0.0757,2.26199 0.0837,3.393591 -6e-5,0.116127 -5.9e-4,0.232178 -0.002,0.348299 0.0582,2.519543 0.0433,5.046277 0.11627,7.564913 0.092,-2.272822 0.16377,-4.546401 0.185,-6.821289 0.0291,-2.100973 0.0542,-4.205306 -0.0522,-6.304524 -0.0484,-0.769964 -0.14464,-1.53297 -0.48472,-2.236556 -0.23299,-0.482062 -0.0796,-0.808162 0.18965,-0.814938 0.005,-1.36e-4 0.0111,9.47e-4 0.0165,0.001 -0.11525,-0.111554 -0.22905,-0.224728 -0.34106,-0.339514 -0.25173,-0.253728 -0.50042,-0.510407 -0.75913,-0.75706 -0.58524,-0.409311 -1.17158,-0.814528 -1.71669,-1.253154 -0.34846,-0.189047 -0.71782,-0.357799 -0.99012,-0.644922 -0.3014,-0.225558 -0.59796,-0.457843 -0.88056,-0.706416 -1.17545,-0.853254 -2.35431,-1.703068 -3.60133,-2.439645 z m 4.86171,0.926558 c -0.29459,0.08057 -0.40949,0.214813 -0.41444,0.36897 0.32608,0.269122 0.65816,0.529967 1.00252,0.775663 0.37243,0.172569 0.66974,0.446168 1.03198,0.657841 0.31837,0.171418 0.62461,0.363716 0.92759,0.56069 0.31809,0.205397 0.60737,0.44795 0.88677,0.702282 0.28161,0.269866 0.55473,0.548434 0.82941,0.825273 0.21261,0.219873 0.43345,0.431042 0.65836,0.638204 0.18846,0.170858 0.38267,0.335557 0.58652,0.487825 0.14457,0.109736 0.29569,0.210054 0.4439,0.31471 0.12263,0.0833 0.23765,0.177836 0.35812,0.264066 0.20318,0.135796 0.34569,0.320284 0.46199,0.532268 0.14589,0.316809 0.17007,0.667889 0.20257,1.010274 0.006,0.075 0.0107,0.150175 0.015,0.225309 0.0838,0.06683 0.1551,0.166652 0.20257,0.298173 0.0186,-0.351878 0.0382,-0.691843 0.0563,-0.892452 0.02,-0.221677 0.0573,-0.441754 0.0858,-0.662492 0.0278,-0.215015 0.0895,-0.380398 0.16795,-0.502811 -0.0591,-0.0224 -0.11638,-0.04796 -0.16589,-0.0863 -0.18323,-0.141913 -0.24836,-0.448705 -0.35243,-0.642855 -0.10286,-0.191908 -0.14929,-0.368867 -0.15348,-0.525032 -0.20557,-0.128278 -0.41155,-0.255537 -0.61856,-0.381372 -0.45024,-0.278415 -0.89531,-0.56453 -1.33532,-0.858863 -0.51108,-0.346101 -1.02413,-0.689847 -1.52653,-1.048515 -0.48546,-0.348594 -0.97294,-0.703225 -1.39629,-1.127063 -0.10374,-0.10385 -0.18592,-0.206604 -0.24857,-0.305924 -0.5632,-0.224656 -1.13046,-0.437608 -1.70584,-0.627869 z m 8.39587,5.297868 c -0.0157,0.004 -0.0321,0.0036 -0.0486,0.0036 v 5.17e-4 c -0.0211,0.04164 -0.0429,0.08293 -0.0605,0.125574 -0.0237,0.05749 -0.0433,0.108701 -0.0594,0.153996 0.006,0.0092 0.012,0.01763 0.0176,0.02739 0.0374,-0.127873 0.0899,-0.231345 0.15089,-0.311092 z m -4.08088,0.583427 c 0.39881,0.697158 0.5344,1.493273 0.64285,2.287199 0.15452,2.138015 0.11445,4.284602 0.10025,6.426481 -0.0218,2.733575 -0.11599,5.465952 -0.23202,8.196916 -0.15318,2.991141 -0.27758,5.982831 -0.34158,8.97723 -0.0466,1.889687 -0.0326,3.780723 -0.0749,5.670454 -0.01,0.445869 -0.005,0.892771 -0.0398,1.337387 -0.0326,0.415596 -0.10858,0.82638 -0.16278,1.239717 -0.0187,0.142626 -0.057,0.252384 -0.10542,0.332796 0.0271,0.7383 0.0591,1.47637 0.0935,2.214336 0.0242,0.03149 0.0199,0.07006 0.007,0.143143 0.003,0.06029 0.006,0.120573 0.009,0.180868 0.33557,0.0021 0.67089,0.0031 1.00665,0.0031 0.0217,-0.727591 0.0395,-1.45531 0.0372,-2.183329 0.002,-1.02885 -0.007,-2.057356 -0.0196,-3.086116 -0.013,-1.173106 -0.0139,-2.346522 -0.008,-3.519682 0.007,-1.241702 0.0113,-2.483653 0.003,-3.725354 0.003,-1.174738 -5.5e-4,-2.349596 -0.002,-3.524333 -6e-4,-1.458156 6e-4,-2.916334 0.017,-4.37441 0.001,-1.707089 -0.0115,-3.414085 -0.0217,-5.121134 -0.003,-1.891419 0.0191,-3.782658 0.006,-5.674073 -0.009,-1.30004 -0.0645,-2.601583 -0.0176,-3.901054 h -5.2e-4 c 0.0142,-0.391721 0.1445,-0.639455 0.30954,-0.74414 -0.009,-0.08664 -0.0195,-0.173037 -0.03,-0.259416 -0.0101,-0.01383 -0.0203,-0.02761 -0.0305,-0.04134 -0.10855,-0.08254 -0.21777,-0.16385 -0.32814,-0.243913 -0.16259,-0.114982 -0.3287,-0.224988 -0.48679,-0.346232 -0.11158,-0.08671 -0.22202,-0.174831 -0.33073,-0.2651 z m 2.77347,3.919141 c -0.0103,0.04537 -0.0214,0.09044 -0.0336,0.135392 -0.0725,0.266638 -0.19384,0.51696 -0.29094,0.775663 -0.0757,0.201821 -0.16007,0.334248 -0.24339,0.398425 0.006,0.182274 0.0122,0.364635 0.0181,0.546737 0.0451,1.89722 0.0504,3.795054 0.0677,5.692676 0.007,0.743689 0.0166,1.487179 0.0258,2.230871 0.0673,-1.973557 0.15768,-3.946305 0.26872,-5.918501 0.0647,-1.286939 0.12579,-2.57415 0.18758,-3.861263 z" />
      <path
         id="path9976"
         style="fill:url(#linearGradient577);fill-opacity:1;stroke:none;stroke-width:0;stroke-dasharray:none"
         d="m 173.08556,70.36108 c -0.0104,0.283688 -0.0203,0.567429 -0.031,0.851111 -0.009,0.245915 -0.0177,0.492031 -0.0274,0.737939 1.2e-4,2.95e-4 -1.1e-4,7.38e-4 0,0.001 0.0116,0.0293 0.0214,0.0609 0.0305,0.09405 0.0158,-0.09108 0.0394,-0.172271 0.0693,-0.242879 -0.034,-0.476184 -0.0419,-0.957801 -0.0413,-1.441256 z" />
      <path
         id="path9978"
         style="fill:url(#linearGradient579);fill-opacity:1;stroke:none;stroke-width:0;stroke-dasharray:none"
         d="m 161.85937,39.146448 c -0.94051,0.45008 0.27895,1.150319 0.78393,1.295011 1.23951,0.58714 2.49941,1.162572 3.74499,1.753898 0.085,0.01381 0.17569,0.03719 0.27234,0.07131 0.55429,0.195687 1.0972,0.424757 1.63814,0.65474 0.40661,0.165923 0.79603,0.369457 1.18753,0.567407 h 5.1e-4 c 0.4814,-0.304943 0.34078,-1.18491 0.44752,-1.701705 -0.3595,-0.79016 -1.54609,-0.523586 -2.22157,-0.928108 -1.95572,-0.532132 -3.85911,-1.363243 -5.85339,-1.712557 z" />
      <path
         id="path9980"
         style="fill:url(#linearGradient581);fill-opacity:1;stroke:none;stroke-width:0;stroke-dasharray:none"
         d="m 171.22056,42.804622 c -0.0145,1.6e-4 -0.029,6.84e-4 -0.0434,0.0016 -0.5594,0.07028 -0.82549,0.437702 -0.95963,0.904854 0.2286,0.108504 0.42341,0.41288 0.46095,0.914673 0.0529,0.706339 0.0903,1.414851 0.0656,2.122868 -0.11266,0.1533 -0.22529,0.306619 -0.33796,0.45992 -0.0794,0.107973 -0.13534,0.191035 -0.18035,0.254248 0.0247,0.02651 0.0521,0.05534 0.0837,0.0863 0.23547,0.230532 0.32674,0.293231 0.34933,0.406693 0.6293,-0.664623 1.14036,-1.537439 1.45935,-2.390552 -0.0252,-0.879413 0.1591,-2.096167 -0.601,-2.705261 -0.0932,-0.04187 -0.19513,-0.05641 -0.29662,-0.05529 z" />
      <path
         style="fill:url(#linearGradient583);fill-opacity:1;stroke:#878787;stroke-width:0;stroke-dasharray:none;stroke-opacity:1"
         id="path10110"
         d="m 139.57024,42.259414 c -0.76687,0.649025 -1.39674,1.43538 -1.99691,2.235588 -0.57823,0.84337 -1.11518,1.726782 -1.52346,2.666156 -0.0248,0.149686 -0.28124,0.449419 -0.14506,0.616292 0.0685,0.08387 0.1709,0.132948 0.25636,0.199424 -0.15086,0.474141 0.51968,0.687475 0.67053,0.213334 v 0 c 0.0934,0.04157 0.17987,0.104822 0.28013,0.124695 0.18774,0.03721 0.26922,-0.3595 0.35646,-0.437576 0.46932,-0.801351 0.86184,-1.650304 1.41821,-2.398905 0.52465,-0.701744 1.07231,-1.392542 1.73583,-1.970167 0.88307,-0.743942 -0.16903,-1.992781 -1.05209,-1.248841 z" />
      <path
         style="fill:url(#linearGradient585);fill-opacity:1;stroke:#878787;stroke-width:0;stroke-dasharray:none;stroke-opacity:1"
         id="path10112"
         d="m 139.32725,44.522006 c 0.33875,-0.564364 0.38591,-0.293841 0.20433,-0.974331 0.26266,-0.422585 -0.33496,-0.794041 -0.59762,-0.371459 v 0 c -0.72574,0.154988 -0.42992,0.06538 -0.79999,0.666893 -0.48006,0.843782 0.71323,1.522679 1.19328,0.678897 z" />
      <path
         id="path10114"
         style="fill:url(#linearGradient587);fill-opacity:1;stroke:#878787;stroke-width:0;stroke-dasharray:none;stroke-opacity:1"
         d="m 163.51353,67.621712 c 1.4e-4,0.0096 3.9e-4,0.01929 5.2e-4,0.02894 1e-5,-0.0096 -1e-5,-0.01929 0,-0.02894 z m 5.2e-4,0.02894 c -1.2e-4,0.100246 -4.2e-4,0.200485 -0.002,0.300757 0,0.0045 0,0.009 0,0.01344 0.002,-0.0016 0.004,-0.0031 0.006,-0.0047 -10e-4,-0.103195 -0.002,-0.206348 -0.004,-0.309542 z m 0.71107,15.168066 c -0.004,0.05113 -0.009,0.100464 -0.016,0.147278 0.0501,-0.02545 0.10036,-0.05044 0.15038,-0.07596 -0.0352,-0.021 -0.0776,-0.04445 -0.13436,-0.07131 z" />
      <path
         id="path10116"
         style="fill:url(#linearGradient589);fill-opacity:1;stroke:#878787;stroke-width:0;stroke-dasharray:none;stroke-opacity:1"
         d="m 157.78623,53.080998 c -0.0879,-2.59e-4 -0.17619,0.0309 -0.24236,0.09302 -0.0146,1.187879 -0.052,2.375701 -0.0868,3.56309 -0.0499,1.482161 -0.11334,2.96384 -0.17054,4.445724 -0.0582,1.368909 -0.12945,2.737112 -0.18345,4.106209 -0.0442,1.209974 -0.0642,2.420569 -0.0651,3.631303 -0.004,1.061148 0.0233,2.121765 0.0579,3.182235 0.0356,1.139747 0.07,2.279807 0.0899,3.419946 0.0209,1.157151 0.0232,2.314369 0.0129,3.471623 -0.0114,1.09721 -0.0113,2.19467 -0.03,3.291788 -0.0135,0.709854 -0.0419,1.419021 -0.0754,2.128036 0.23988,-0.03259 0.47877,-0.07077 0.71624,-0.115755 0.0641,-1.267532 -0.0288,-2.539115 -0.0512,-3.80752 -0.006,-0.180322 -0.0108,-0.360724 -0.0155,-0.541052 -0.0798,-0.423304 -0.1711,-0.845013 -0.20671,-1.273824 -0.0484,-0.582663 -0.018,-1.169236 -0.016,-1.753898 0.006,-1.996708 0.0812,-3.993223 0.12144,-5.989299 0.1144,-4.086917 0.27615,-8.171775 0.43563,-12.257133 0.058,-1.683503 0.0894,-3.370144 0.1695,-5.053438 -0.0383,-0.05461 -0.0755,-0.109746 -0.10904,-0.166398 5e-4,-0.248778 -0.17502,-0.374138 -0.35088,-0.374654 z" />
      <path
         id="path10990"
         style="fill:url(#linearGradient591);fill-opacity:1;stroke:#ff6600;stroke-width:0;stroke-dasharray:none;stroke-opacity:1"
         d="m 159.04921,48.445105 c -0.32187,-0.0098 -0.65043,0.207823 -0.66456,0.663009 h 5.1e-4 c -0.17424,1.180315 -0.19977,2.381107 -0.25269,3.572391 -0.0549,1.210906 -0.0574,2.423309 -0.0842,3.634921 -0.0281,1.012465 -0.076,2.02416 -0.14004,3.034956 -0.0671,0.973413 -0.1385,1.94624 -0.20464,2.919719 -0.0815,1.169702 -0.12364,2.341683 -0.16019,3.513481 -0.0329,1.052693 -0.0629,2.10577 -0.0961,3.158463 -0.0349,0.831763 -0.0437,1.663616 -0.0429,2.495972 -0.002,0.715531 -0.008,1.431153 -0.0165,2.146639 -0.0232,0.953585 -0.0351,1.907005 -0.0444,2.860807 -0.0106,0.849556 -0.0173,1.699581 -0.014,2.549198 -2.7e-4,0.519435 0.0106,1.038634 0.0119,1.558045 5.3e-4,0.495544 -1.2e-4,0.990723 -0.009,1.486214 -0.0133,0.437555 -0.0284,0.875121 -0.0444,1.312581 -0.008,0.249349 -0.0178,0.498797 -0.0212,0.748275 0.007,0.09621 -0.0122,0.196886 -0.003,0.290939 0.55283,-0.0824 1.09901,-0.199612 1.63969,-0.339515 0.003,-0.213447 0.008,-0.427 0.0165,-0.640271 0.0164,-0.449276 0.0299,-0.898344 0.0434,-1.347721 0.007,-0.50492 0.009,-1.010172 0.009,-1.515153 -10e-4,-0.520097 -0.0122,-1.039992 -0.0119,-1.560111 -0.003,-0.843203 0.004,-1.685926 0.016,-2.529045 0.006,-0.951619 0.0198,-1.903227 0.0424,-2.854606 0.009,-0.723905 0.0111,-1.448022 0.0165,-2.171961 -0.005,-0.812266 0.005,-1.62437 0.0398,-2.436027 0.0373,-1.053783 0.0607,-2.108246 0.0966,-3.162081 0.0359,-1.151886 0.0757,-2.303689 0.15555,-3.453536 0.0664,-0.977086 0.1361,-1.953956 0.19378,-2.931604 0.0612,-1.035572 0.10579,-2.072588 0.12351,-3.109887 0.01,-1.204656 0.006,-2.409265 0.032,-3.613733 0.0163,-1.191358 0.0841,-2.388182 -0.004,-3.577043 0.0142,-0.455179 -0.30084,-0.693081 -0.6227,-0.703316 z" />
      <path
         style="fill:url(#linearGradient593);fill-opacity:1;stroke:#ff6600;stroke-width:0;stroke-dasharray:none;stroke-opacity:1"
         id="path10992"
         d="m 143.939,40.825832 c -0.40833,-0.456245 -0.85098,-0.877734 -1.33306,-1.254855 -0.3646,-0.201941 -0.16019,-0.170378 -0.62047,-0.0061 -0.42242,-0.262917 -0.79425,0.334478 -0.37182,0.597397 v 0 c -0.008,0.428405 -0.0951,0.278667 0.14819,0.498756 0.44002,0.336587 0.8508,0.705723 1.24985,1.089866 0.65408,0.655706 1.58139,-0.269314 0.92731,-0.92502 z" />
      <path
         id="path10994"
         style="fill:url(#linearGradient595);fill-opacity:1;stroke:#ff6600;stroke-width:0;stroke-dasharray:none;stroke-opacity:1"
         d="m 146.70422,40.18256 c -0.0802,3.2e-5 -0.1524,0.06966 -0.34313,0.187586 -0.38779,-0.311748 -0.82859,0.236541 -0.4408,0.548287 -0.13319,0.388165 -0.19066,0.360418 0.0982,0.613399 0.12935,0.09903 0.25948,0.19672 0.39119,0.292488 0.0919,-0.09488 0.2259,-0.150753 0.38757,-0.150895 0.21438,-1.87e-4 0.47715,0.09721 0.75396,0.329179 0.37614,0.315219 0.75957,0.620315 1.1591,0.905371 0.27684,0.128275 0.51244,0.31225 0.76378,0.485242 0.4341,-0.206743 0.6255,-0.859586 0.0739,-1.248503 -0.5035,-0.388877 -1.03168,-0.743914 -1.56218,-1.094506 -0.35377,-0.224423 -0.69289,-0.470394 -1.02009,-0.731739 -0.13188,-0.0942 -0.19911,-0.135933 -0.26149,-0.135909 z" />
      <path
         id="path10996"
         style="fill:url(#linearGradient597);fill-opacity:1;stroke:#ff6600;stroke-width:0;stroke-dasharray:none;stroke-opacity:1"
         d="m 154.08569,41.240377 c -0.59052,0.01463 -1.01258,0.806041 -0.39585,1.309997 0.55295,0.484826 1.12453,0.948548 1.70274,1.403015 0.23034,-0.129188 0.44968,-0.217279 0.59015,-0.217557 0.16147,-3.2e-4 0.21823,0.114626 0.0667,0.415478 -0.01,0.01891 -0.0189,0.03793 -0.0284,0.05684 0.0438,0.028 0.088,0.05839 0.13281,0.09198 0.36897,0.276436 0.72136,0.574446 1.07125,0.874366 0.25817,0.227613 0.40011,0.326396 0.41031,0.401009 0.071,0.04115 0.13229,0.122397 0.22738,0.271301 -0.0807,0.06294 -0.15452,0.122488 -0.22273,0.1788 0.17009,0.330319 0.22354,0.691343 0.28525,1.0573 l 0.41858,0.317294 c 0.0247,0.496936 0.72752,0.462301 0.7028,-0.03462 0.12718,-0.143992 0.25419,-0.288024 0.38137,-0.432015 -0.0332,-0.6602 -0.19251,-1.274407 -0.5426,-1.841748 -0.29003,-0.460524 -0.63287,-0.883971 -1.06298,-1.222664 -0.42485,-0.331695 -0.8671,-0.63937 -1.29708,-0.964282 -0.64357,-0.486764 -1.27756,-0.986265 -1.92288,-1.470712 -0.17269,-0.141103 -0.35142,-0.197883 -0.51676,-0.193786 z" />
      <path
         id="path10998"
         style="fill:url(#linearGradient599);fill-opacity:1;stroke:#ff6600;stroke-width:0;stroke-dasharray:none;stroke-opacity:1"
         d="m 162.30069,48.192924 c -0.30971,0.01215 -0.61111,0.230402 -0.63304,0.668176 h -5.2e-4 c -0.1679,1.421451 -0.19121,2.857028 -0.27388,4.285527 -0.14331,2.506583 -0.27768,5.012581 -0.35915,7.522021 -0.0785,2.497707 -0.12653,4.99638 -0.18294,7.494633 -0.0608,1.991808 -0.0733,3.984323 -0.0796,5.976896 -0.009,1.404472 -0.018,2.80927 -0.0325,4.213697 -0.007,1.053098 -0.034,2.106025 -0.0507,3.15898 0.0101,0.255674 3.4e-4,0.51268 -0.0109,0.769979 0.20692,0.149034 0.36922,0.452579 0.38964,0.911572 0.004,0.08437 0.006,0.155934 0.008,0.219108 0.0865,-0.02524 0.1733,-0.04717 0.26252,-0.04651 0.0778,5.56e-4 0.15432,0.01439 0.23048,0.03152 0.001,-0.121271 0.002,-0.242573 0.003,-0.363802 0.004,-0.741546 0.0183,-1.483079 0.0103,-2.22467 0.0193,-0.912566 0.0493,-1.824561 0.0806,-2.736784 0.0386,-0.989654 0.0836,-1.979255 0.11007,-2.969328 0.0213,-1.05548 0.0409,-2.11086 0.0667,-3.166215 0.0418,-0.982878 0.0948,-1.965161 0.1633,-2.94659 0.0709,-1.003642 0.16292,-2.005909 0.20102,-3.011703 0.0506,-0.99385 0.10525,-1.987347 0.15555,-2.981213 0.0494,-0.97783 0.10522,-1.955596 0.12092,-2.934705 0.01,-0.962728 0.005,-1.92548 0.0165,-2.888196 0.0115,-1.075182 0.0458,-2.15003 0.0636,-3.225126 0.0201,-1.275379 0.0379,-2.551092 0.0429,-3.826639 0.009,-0.616198 0.006,-1.235819 0.047,-1.851567 -0.10662,-0.05665 -0.22764,-0.0836 -0.34778,-0.07906 z" />
      <path
         id="path11000"
         style="fill:url(#linearGradient601);fill-opacity:1;stroke:#ff6600;stroke-width:0;stroke-dasharray:none;stroke-opacity:1"
         d="m 150.84247,46.111397 c -0.48328,0.08191 -0.84326,0.682269 -0.38964,1.197343 h 5.2e-4 c 0.3533,0.438986 0.71694,0.873093 0.97462,1.37666 0.2362,0.425477 0.32627,0.89258 0.37878,1.369943 0.0628,0.910846 0.0139,1.824872 -0.0232,2.73575 -0.0202,0.359343 -0.0363,0.718916 -0.0496,1.078487 0.009,0.461814 0.0159,0.923536 0.0191,1.385445 -7e-4,1.237079 -0.0258,2.473805 -0.0248,3.710885 0.0108,1.245021 0.0415,2.490079 0.0754,3.734656 0.0389,1.328937 0.074,2.657513 0.0966,3.986836 0.017,1.123701 0.0298,2.247618 0.0429,3.371371 0.007,1.029376 0.0455,2.058188 0.0868,3.086633 0.0425,1.102186 0.0927,2.203878 0.14262,3.305741 0.0482,0.974336 0.0548,1.950086 0.0538,2.925403 -0.006,1.119632 -0.0305,2.239005 -0.0496,3.358452 -0.0121,0.637988 -0.0177,1.276048 -0.0207,1.914095 0.37552,0.0025 0.75103,0.0056 1.12654,0.0057 0.0163,-0.282212 0.0192,-0.565707 0.0315,-0.84801 0.0204,-0.690081 0.0403,-1.380282 0.0186,-2.070675 -0.022,-0.745315 -0.0508,-1.49018 -0.0858,-2.235006 -0.0488,-1.008585 -0.0923,-2.017802 -0.14573,-3.026171 -0.0634,-1.236574 -0.11007,-2.473937 -0.13488,-3.711919 -0.023,-1.521427 -0.009,-3.042948 0.0295,-4.564062 0.0425,-1.899734 0.0779,-3.799722 0.12299,-5.699394 0.044,-1.777472 0.0991,-3.554617 0.12557,-5.332491 0.0187,-1.397775 0.0322,-2.79608 0.10181,-4.192509 -0.0148,-1.080837 -0.0472,-2.162433 -0.016,-3.242696 -0.0897,-0.641128 -0.24551,-1.263373 -0.5824,-1.827279 -0.005,-0.0077 -0.0105,-0.01504 -0.0155,-0.02274 -0.22279,-0.174046 -0.44144,-0.353536 -0.64802,-0.546737 -0.2405,-0.221635 -0.47644,-0.448542 -0.70487,-0.682645 -0.179,-0.180421 -0.35638,-0.362218 -0.53692,-0.541053 z" />
      <path
         id="path11002"
         style="fill:url(#linearGradient603);fill-opacity:1;stroke:#ff6600;stroke-width:0;stroke-dasharray:none;stroke-opacity:1"
         d="m 154.96677,46.24679 c -0.40439,0.04357 -0.7604,0.464792 -0.49971,0.976167 0.0169,0.06533 0.0319,0.130857 0.0475,0.196371 0.16059,0.128123 0.28037,0.289586 0.38034,0.471806 0.14589,0.316809 0.17007,0.667889 0.20257,1.010274 0.006,0.075 0.0107,0.150175 0.015,0.225309 0.17449,0.139063 0.29399,0.420923 0.25941,0.833541 -0.0484,0.57702 -0.0417,1.175413 -0.19482,1.738912 -0.0631,0.232045 -0.16327,0.451802 -0.25218,0.675411 -0.0155,2.17214 -0.10019,4.343307 -0.19844,6.513297 6.5e-4,0.07493 0.001,0.149858 0.002,0.224793 0.0159,1.707543 0.0427,3.415131 0.0579,5.122685 0.007,1.457903 0.003,2.915478 0.0155,4.373376 0.008,1.175389 0.007,2.351029 0.0181,3.5264 0.017,1.245191 0.0133,2.490437 0.0103,3.735689 -0.003,1.165697 -0.003,2.331313 0.01,3.496944 0.0156,1.03534 0.0237,2.070812 0.0217,3.106271 1.4e-4,0.714663 -0.0159,1.429183 -0.0362,2.143538 0.004,0.0038 0.007,0.0088 0.0109,0.0124 0.16702,-0.008 0.33401,-0.0187 0.50075,-0.03049 0.047,-0.0558 0.0792,-0.131035 0.0863,-0.227376 0.0418,-0.0096 0.0849,-0.01583 0.12764,-0.02274 0.0333,-0.69625 0.0615,-1.392661 0.0724,-2.089795 0.0187,-1.092109 0.0215,-2.18458 0.0315,-3.276802 0.007,-1.144512 0.01,-2.288981 -0.0129,-3.433382 -0.0197,-1.133165 -0.0541,-2.265982 -0.0894,-3.398759 -0.0316,-1.077711 -0.0618,-2.155599 -0.0568,-3.233911 0.005,-1.229664 0.0324,-2.459363 0.0796,-3.688147 0.0541,-1.370708 0.12578,-2.740639 0.19068,-4.110861 0.069,-1.478343 0.13461,-2.956896 0.20051,-4.435388 0.0762,-1.739813 0.14505,-3.480207 0.18035,-5.221386 0.0262,-1.008962 0.0389,-2.020672 0.1049,-3.028239 -0.0645,-0.30286 -0.14438,-0.601657 -0.24391,-0.894519 -0.0567,-0.03082 -0.12713,-0.06714 -0.21653,-0.107487 -0.11078,-0.05 -0.23618,-0.07544 -0.33228,-0.149862 -0.18323,-0.141913 -0.24836,-0.448705 -0.35243,-0.642855 -0.0745,-0.138962 -0.11932,-0.270129 -0.14004,-0.39119 z" />
      <path
         id="path11004"
         style="fill:url(#linearGradient605);fill-opacity:1;stroke:#ff6600;stroke-width:0;stroke-dasharray:none;stroke-opacity:1"
         d="m 166.37279,44.704765 c -0.0659,0.0017 -0.13128,0.01303 -0.19482,0.03049 0.31333,0.242312 0.60105,0.513581 0.86351,0.810286 0.0808,0.08971 0.15281,0.183354 0.21859,0.280087 -0.0328,-0.152429 -0.0677,-0.304502 -0.10697,-0.455787 -0.0966,-0.469295 -0.44105,-0.673643 -0.77979,-0.665075 z m 1.32808,7.40885 c -0.0192,0.541378 -0.0411,1.082894 -0.062,1.62419 -0.0384,0.991991 -0.0968,1.982773 -0.15968,2.973462 -0.0622,0.989411 -0.13303,1.978058 -0.19843,2.967261 -0.0765,0.940158 -0.0967,1.883316 -0.12713,2.825667 -0.0281,0.845766 -0.0457,1.691437 -0.0703,2.537313 -0.0245,0.759108 -0.0482,1.518166 -0.0692,2.27738 -0.0343,0.971977 -0.054,1.944598 -0.061,2.917135 -0.0136,1.128221 0.0188,2.256166 0.0506,3.383773 0.008,0.922077 0.0584,1.846481 0.005,2.767789 -0.0929,0.389494 -0.038,0.278682 -0.23358,0.52555 0.004,0.06684 0.008,0.133662 0.0119,0.200504 0.066,1.204812 0.12114,2.410277 0.15864,3.616317 0.006,0.205997 0.0116,0.412051 0.0171,0.61805 0.046,0.02434 0.0962,0.03904 0.14779,0.04186 0.0307,-0.01807 0.0618,-0.03561 0.0925,-0.05374 0.0824,-0.04892 0.16465,-0.09844 0.2465,-0.148312 0.0228,-0.05225 0.0363,-0.113108 0.0331,-0.185001 0.24637,-0.142875 0.46427,-0.236878 0.47181,-0.554489 0.006,-0.66855 -0.0317,-1.337104 -0.0408,-2.005562 -0.0324,-1.008619 -0.0638,-2.017471 -0.0698,-3.026688 -0.0141,-1.314663 -0.0125,-2.629225 -0.009,-3.943946 -0.001,-1.664118 -0.0151,-3.327915 -0.0636,-4.991426 -0.0405,-1.823395 -0.0999,-3.646998 -0.10232,-5.470984 0.01,-1.93803 0.0463,-3.875542 0.0522,-5.813599 -0.003,-1.02745 -0.008,-2.055023 -0.0207,-3.082499 z" />
      <path
         id="path11006"
         style="fill:url(#linearGradient607);fill-opacity:1;stroke:#ff6600;stroke-width:0;stroke-dasharray:none;stroke-opacity:1"
         d="m 171.77556,73.331441 c -0.003,0.09423 -0.006,0.188449 -0.01,0.28267 -0.0138,0.317435 -0.0256,0.634842 -0.0362,0.952397 0.006,-0.150874 0.0133,-0.301876 0.0217,-0.452686 0.008,-0.199515 0.0166,-0.398925 0.0253,-0.598413 z m -0.1049,3.494877 c -0.005,0.18645 -0.0145,0.372559 -0.0264,0.558623 0.009,-0.04575 0.0191,-0.09025 0.0305,-0.132292 -0.0227,-0.0739 -0.007,-0.136854 -0.004,-0.426331 z" />
      <path
         id="path11008"
         style="fill:url(#linearGradient609);fill-opacity:1;stroke:#ff6600;stroke-width:0;stroke-dasharray:none;stroke-opacity:1"
         d="m 168.01868,70.326457 c -0.15082,0.12704 -0.25589,0.325621 -0.26406,0.596862 h 5.2e-4 c -0.13277,1.306471 -0.13279,2.625215 -0.1447,3.937745 -0.002,1.3462 -0.003,2.693091 0.0279,4.03903 0.0194,0.151912 0.0646,0.661436 0.15503,0.81597 0.0702,0.120102 0.19613,0.197756 0.29403,0.296623 -2.2e-4,0.112515 0.0359,0.199184 0.0915,0.260966 -0.007,-0.574236 -0.0128,-1.148599 -0.01,-1.722892 0.001,-0.887583 -0.005,-1.774923 -0.0217,-2.66237 -0.0169,-0.936343 -0.0228,-1.872824 -0.0419,-2.809131 -0.0206,-0.917944 -0.0484,-1.835417 -0.0868,-2.752803 z" />
      <path
         style="fill:url(#linearGradient611);fill-opacity:1;stroke:#ff6600;stroke-width:0;stroke-dasharray:none;stroke-opacity:1"
         id="path11498"
         d="m 175.06985,78.150724 c 0.11596,-0.872162 0.17442,-1.749888 0.22375,-2.62782 0.0291,-0.766178 0.0418,-1.532959 0.0551,-2.29956 0.001,-0.506976 0.0125,-1.014336 -0.007,-1.521071 -0.01,-0.130043 0.008,-0.61794 -0.1559,-0.678482 -0.1037,-0.03834 -0.21955,-0.0264 -0.32933,-0.0396 -0.0784,-0.491347 -0.77325,-0.380505 -0.69487,0.110845 v 0 c -0.10246,0.03269 -0.20941,0.0537 -0.30738,0.09807 -0.17357,0.0786 -0.0463,0.443246 -0.062,0.570926 0.0198,0.478747 0.009,0.958059 0.008,1.437068 -0.008,0.748297 -0.0281,1.496536 -0.0514,2.244503 -0.038,0.869524 -0.11024,1.737037 -0.14206,2.606588 -0.0697,1.03469 1.3936,1.133228 1.46327,0.09854 z" />
      <path
         style="fill:url(#linearGradient613);fill-opacity:1;stroke:#ff6600;stroke-width:0;stroke-dasharray:none;stroke-opacity:1"
         id="path11500"
         d="m 175.33048,77.654691 c 0.30034,-0.815961 0.55582,-1.647033 0.80055,-2.481005 0.26376,-0.888101 0.4707,-1.791407 0.67105,-2.695462 0.19598,-0.860266 0.3454,-1.730057 0.47913,-2.601859 0.12638,-0.911466 0.21693,-1.827673 0.28907,-2.744904 0.0635,-0.836472 0.0475,-1.675024 -0.0117,-2.510877 -0.0657,-0.633691 -0.0949,-1.280409 -0.28697,-1.891385 -0.16092,-0.318616 -0.0406,-0.169246 -0.40727,-0.40635 -0.005,-0.497533 -0.7088,-0.490204 -0.70361,0.0073 v 0 c -0.37353,0.301599 -0.2588,0.11746 -0.38279,0.526394 -0.0669,0.632161 0.0648,1.253255 0.11372,1.883233 0.0544,0.752697 0.0705,1.507503 0.0163,2.261055 -0.0689,0.87788 -0.15596,1.754166 -0.26604,2.627916 -0.12431,0.836546 -0.26203,1.671306 -0.4499,2.496325 -0.18952,0.873363 -0.38869,1.744755 -0.61962,2.608254 -0.22555,0.830953 -0.46132,1.659089 -0.68023,2.491785 -0.30374,1.016982 1.13449,1.446533 1.43823,0.429551 z" />
      <path
         style="fill:url(#linearGradient615);fill-opacity:1;stroke:#ff6600;stroke-width:0;stroke-dasharray:none;stroke-opacity:1"
         id="path11502"
         d="m 176.20279,54.836943 c 0.28832,1.253498 0.43752,2.531549 0.54697,3.811209 0.14957,1.935247 0.0914,3.876252 -0.0625,5.80852 -0.1232,1.499727 -0.41705,2.975406 -0.67006,4.456083 -0.068,0.39782 -0.17479,0.792139 -0.19267,1.195329 -0.0195,0.439828 0.0541,0.878859 0.0812,1.318289 -0.11376,0.484378 0.57126,0.645266 0.68502,0.160886 v 0 c 0.22135,-0.38779 0.49001,-0.752166 0.66403,-1.163373 0.16197,-0.38272 0.23663,-0.797076 0.33635,-1.200515 0.37594,-1.520966 0.57139,-3.081573 0.73545,-4.636908 0.15955,-2.026878 0.21955,-4.06413 0.0412,-6.092738 -0.14229,-1.358177 -0.32792,-2.715191 -0.72582,-4.026034 -0.2611,-1.017591 -1.70019,-0.648338 -1.43909,0.369252 z" />
      <path
         id="path11504"
         style="fill:url(#linearGradient617);fill-opacity:1;stroke:#ff6600;stroke-width:0;stroke-dasharray:none;stroke-opacity:1"
         d="m 174.49271,74.291589 c -0.29492,-0.0012 -0.59127,0.183084 -0.66663,0.593246 -0.22483,0.784417 -0.43297,1.572004 -0.7121,2.339392 -0.0156,0.03955 -0.0314,0.07903 -0.0475,0.118339 -0.0245,0.814609 -0.0554,1.628949 -0.0899,2.443262 -0.0124,0.196318 -0.0377,0.673875 -0.0729,1.034045 0.21769,0.01593 0.43787,5.33e-4 0.65784,-0.03359 0.48729,-0.0943 0.89353,-0.348098 1.26039,-0.67076 0.67547,-0.686246 0.86809,-1.611518 1.02319,-2.527494 -0.0786,-0.274875 -0.15704,-0.549878 -0.23564,-0.824756 0.0991,-0.487581 -0.59076,-0.62763 -0.68988,-0.140043 -0.0256,0.02987 -0.0514,0.05953 -0.077,0.0894 0.14361,-0.519651 0.25688,-1.047321 0.30954,-1.584399 0.0969,-0.527351 -0.28021,-0.83512 -0.65939,-0.836642 z" />
      <path
         id="path11506"
         style="fill:url(#linearGradient619);fill-opacity:1;stroke:#ff6600;stroke-width:0;stroke-dasharray:none;stroke-opacity:1"
         d="m 173.85037,74.199089 c -0.14295,0.0045 -0.2843,0.09342 -0.33176,0.289904 -0.1303,0.236815 -0.27611,0.466246 -0.40515,0.703833 -0.002,0.135543 -0.003,0.271172 -0.005,0.406694 -0.0243,1.391418 -0.0723,2.782025 -0.13126,4.172355 0.25243,-0.05242 0.47989,-0.244743 0.54725,-0.60203 0.27631,-1.097469 0.64689,-2.212907 0.71314,-3.351217 0.0226,-0.387654 -0.0231,-0.776131 -0.0346,-1.16427 0.0694,-0.287169 -0.1435,-0.461792 -0.35243,-0.455269 z" />
      <path
         id="path11508"
         style="fill:url(#linearGradient621);fill-opacity:1;stroke:#ff6600;stroke-width:0;stroke-dasharray:none;stroke-opacity:1"
         d="m 177.8062,61.882011 c -0.18685,-0.0049 -0.37766,0.13099 -0.36122,0.394808 -0.0796,0.288599 -0.1852,0.571015 -0.23874,0.86558 -0.0484,0.266216 -0.12997,1.560224 -0.14883,1.833997 -0.0974,1.581489 -0.28624,3.153439 -0.52297,4.720125 -0.20503,1.342413 -0.43417,2.68282 -0.77876,3.997689 -0.27945,1.0459 -0.62381,2.071894 -1.07745,3.056661 -0.33187,0.724564 -0.70079,1.427885 -1.12138,2.105298 -0.65264,0.901262 0.62222,1.824717 1.27486,0.923457 0.57011,-0.697941 0.9993,-1.49364 1.38957,-2.301668 0.51823,-1.066781 0.90274,-2.185882 1.2175,-3.326929 0.36506,-1.377863 0.60787,-2.782775 0.82321,-4.190441 0.12423,-1.0079 0.31097,-2.011353 0.39532,-3.024105 0.0634,-0.760779 0.0538,-1.135056 0.0625,-1.900659 -0.0417,-0.595984 -0.0654,-1.359989 -0.22583,-1.942001 -0.0822,-0.298245 -0.23121,-0.573936 -0.34674,-0.860929 -0.0145,-0.23278 -0.1762,-0.346555 -0.34107,-0.350883 z" />
      <path
         id="path11510"
         style="fill:url(#linearGradient623);fill-opacity:1;stroke:#ff6600;stroke-width:0;stroke-dasharray:none;stroke-opacity:1"
         d="m 174.23174,65.290588 c -0.1649,0.0017 -0.32906,0.113194 -0.34726,0.345716 -0.16477,0.361257 -0.32925,0.722397 -0.49403,1.083654 -0.0979,0.753595 -0.18098,1.508875 -0.2558,2.264979 -1.2e-4,0.0012 -4e-4,0.0024 -5.2e-4,0.0036 -0.0255,0.741224 -0.0516,1.482481 -0.0796,2.223637 -0.009,0.245744 -0.0182,0.491686 -0.0279,0.737422 -1e-5,1.72e-4 0,3.45e-4 0,5.17e-4 0.04,0.101031 0.0663,0.224662 0.0718,0.371554 0.0414,1.092134 0.0258,2.185391 0.01,3.277836 -0.0133,0.760568 -0.0336,1.520827 -0.0589,2.280998 0.38057,0.130355 0.86978,-0.06546 0.91363,-0.63252 0.23418,-1.433343 0.31086,-2.889603 0.44804,-4.335136 0.18325,-2.020904 0.41615,-4.037429 0.49454,-6.065779 -0.10632,-0.385323 -0.21252,-0.770684 -0.31884,-1.156002 0.0206,-0.263522 -0.1676,-0.402431 -0.3545,-0.400493 z" />
      <path
         id="path11512"
         style="fill:url(#linearGradient625);fill-opacity:1;stroke:#ff6600;stroke-width:0;stroke-dasharray:none;stroke-opacity:1"
         d="m 174.02142,54.240617 c -0.011,-3.6e-4 -0.0221,-9.6e-5 -0.0331,5.17e-4 -0.17565,0.0098 -0.34409,0.143831 -0.33022,0.392224 -0.11748,0.100904 -0.26364,0.175943 -0.35243,0.302824 -0.19878,0.284065 0.0668,1.270916 0.0522,1.62264 0.0784,0.917602 0.0954,1.838353 0.0331,2.757971 -0.0222,0.362031 -0.046,0.723871 -0.0708,1.085722 0.0547,0.737704 0.077,1.477363 0.0853,2.216919 6e-4,0.721974 -0.0157,1.444034 -0.0336,2.165759 -0.0417,0.258564 0.0602,1.214409 -0.0718,1.388546 -0.0282,0.03722 -0.0637,0.0668 -0.10232,0.09353 -0.0102,0.54516 -0.0205,1.090296 -0.0264,1.635559 -0.002,0.06443 -0.005,0.128839 -0.007,0.19327 0.40503,0.388594 1.22013,0.236274 1.27279,-0.537952 0.14393,-1.325331 0.20523,-2.658903 0.30231,-3.988387 0.10018,-1.383976 0.21164,-2.767175 0.29662,-4.152201 0.072,-1.000967 0.0515,-2.002718 -0.0367,-3.001367 -0.0815,-0.330499 -0.0176,-1.369209 -0.25734,-1.600419 -0.10587,-0.102068 -0.25467,-0.147931 -0.38189,-0.221692 -0.0129,-0.232869 -0.17416,-0.348076 -0.339,-0.353467 z" />
      <path
         id="path16522"
         style="fill:url(#linearGradient627);fill-opacity:1;stroke:#008000;stroke-width:0;stroke-dasharray:none;stroke-opacity:1"
         d="m 149.34644,42.348319 c -0.34325,0.0037 -0.58796,0.255529 -0.65216,0.547771 0.005,0.0039 0.0106,0.008 0.016,0.01188 0.37243,0.172569 0.66974,0.446168 1.03198,0.657841 0.31837,0.171418 0.62461,0.363716 0.92759,0.56069 0.31809,0.205397 0.60737,0.44795 0.88677,0.702282 0.11555,0.11073 0.22975,0.222958 0.34313,0.335897 0.0396,0.02186 0.0793,0.04368 0.11886,0.06563 0.35996,0.200861 0.7071,0.424083 1.05161,0.65009 0.25213,0.166815 0.50066,0.338571 0.75138,0.507462 0.20467,0.141738 0.42612,0.255419 0.64544,0.372071 0.1826,0.09376 0.36525,0.187171 0.54415,0.287837 0.0851,0.06069 0.19952,0.105556 0.25993,0.195337 -0.0316,0.01132 -0.0701,-0.09475 -0.0734,-0.03462 0.0117,0.220027 0.0112,0.440756 0.006,0.660942 -0.006,0.434501 -0.0182,0.868874 -0.0418,1.302762 0.14663,0.150681 0.24097,0.416159 0.2098,0.788066 -0.0322,0.384328 -0.04,0.778122 -0.0868,1.164787 0.0541,0.08462 0.12492,0.164037 0.21549,0.24753 -0.0295,0.496682 0.67274,0.538537 0.70228,0.04186 0.27831,-0.205213 0.36812,-0.348438 0.4284,-0.690397 0.12518,-0.472381 0.1419,-0.959627 0.16484,-1.445907 0.0219,-0.462506 0.0401,-0.925491 0.0445,-1.388546 5.3e-4,-0.302525 0.004,-0.605915 -0.031,-0.906921 -0.0579,-0.338505 -0.17504,-0.649226 -0.43357,-0.887801 -0.18182,-0.162555 -0.37689,-0.308786 -0.59221,-0.42478 -0.19319,-0.107894 -0.39075,-0.206956 -0.58704,-0.309025 -0.16863,-0.08606 -0.33801,-0.171552 -0.49506,-0.27802 -0.25815,-0.173892 -0.51911,-0.343869 -0.77928,-0.514697 -0.38237,-0.245639 -0.76695,-0.488871 -1.17254,-0.695048 -0.4457,-0.232836 -0.89292,-0.462948 -1.33739,-0.698149 -0.56414,-0.292657 -1.13793,-0.571284 -1.74563,-0.762744 -0.11346,-0.04538 -0.22074,-0.06514 -0.31987,-0.06408 z" />
      <path
         id="path16524"
         style="fill:url(#linearGradient629);fill-opacity:1;stroke:#008000;stroke-width:0;stroke-dasharray:none;stroke-opacity:1"
         d="m 167.62129,43.728597 c -0.0965,0.07363 -0.19286,0.147546 -0.28938,0.221175 -0.41232,-0.278488 -0.8061,0.304422 -0.39378,0.58291 -0.035,0.115171 -0.0704,0.230549 -0.10542,0.345716 0.16442,0.206223 0.39033,0.333941 0.59583,0.495577 0.0788,0.0629 0.15958,0.133059 0.22634,0.203605 -0.0187,-0.148227 0.0205,0.05662 0.008,0.100252 0.0109,0.248147 0.0169,0.496504 0.0274,0.744657 0.0139,0.324596 0.0385,0.64862 0.0553,0.973068 0.0178,0.399315 0.034,0.798558 0.0346,1.198376 0.0105,0.503396 0.005,1.007164 0.0212,1.510502 0.0122,0.636231 -0.008,1.272798 -0.0186,1.908928 -0.0202,0.813253 -0.0476,1.628177 -0.0186,2.441194 -0.0121,0.616795 0.56191,0.835478 0.9555,0.641822 0.0307,-0.361583 0.0619,-0.722978 0.0915,-1.084689 0.0693,-0.956159 0.0927,-1.915647 0.19586,-2.869075 0.0305,-0.281897 0.13928,-0.4605 0.2682,-0.541053 0.003,-0.167884 0.005,-0.33598 0.007,-0.503845 -0.005,-0.505619 -0.0114,-1.011054 -0.0103,-1.516703 0.002,-0.417586 -0.0181,-0.834576 -0.0367,-1.251603 -0.0122,-0.326702 -0.0389,-0.652364 -0.0568,-0.978752 -0.007,-0.246097 -0.0124,-0.492494 -0.0233,-0.738456 0.006,-0.228539 -0.0454,-0.44226 -0.12815,-0.653707 -0.13995,-0.302948 -0.37985,-0.532564 -0.62942,-0.745691 -0.24485,-0.18256 -0.4773,-0.398197 -0.77567,-0.484208 z" />
      <path
         style="fill:url(#linearGradient631);fill-opacity:1;stroke:#008000;stroke-width:0;stroke-dasharray:none;stroke-opacity:1"
         id="path16647"
         d="m 154.53538,47.096836 c -0.0688,0.920996 -0.0245,1.848249 -0.006,2.77101 0.0218,0.888762 0.0638,1.77683 0.0873,2.665537 0.0137,0.62045 0.008,1.241261 -0.002,1.861735 0.0311,0.181594 -0.0994,0.91917 0.0285,1.042188 0.10158,0.09766 0.25268,0.124815 0.37902,0.187225 -0.009,0.497475 0.6943,0.510521 0.70353,0.01304 v 0 c 0.12855,-0.05692 0.28012,-0.07787 0.38565,-0.170749 0.1326,-0.116695 0.0341,-0.868148 0.0729,-1.046652 0.0102,-0.646634 0.006,-1.293723 -0.0202,-1.939954 -0.0373,-0.887092 -0.0841,-1.773761 -0.12153,-2.660848 -0.0405,-0.907503 -0.0598,-1.818029 -0.13999,-2.722539 0,-0.966727 -1.36716,-0.966727 -1.36716,0 z" />
      <path
         id="path16758"
         style="fill:url(#linearGradient633);fill-opacity:1;stroke:#008000;stroke-width:0;stroke-dasharray:none;stroke-opacity:1"
         d="m 163.8732,45.942415 c -0.1483,0.110204 -0.25876,0.289298 -0.28422,0.542086 h 0.001 c -0.15831,0.993346 -0.27657,1.992564 -0.38809,2.992066 -0.12446,1.079633 -0.17824,2.165053 -0.21962,3.250447 -0.0263,0.882016 -0.0233,1.764556 -0.0238,2.646867 0.006,0.75299 -0.007,1.506194 -0.0305,2.258777 -0.0342,0.82824 -0.0628,1.656405 -0.0827,2.48512 -0.0268,1.027441 -0.047,2.054922 -0.0677,3.082499 -0.0187,1.042433 -0.034,2.085011 -0.0517,3.127457 -0.0166,0.842804 -0.0339,1.685622 -0.0439,2.528528 -0.0211,0.904655 -0.0588,1.808808 -0.0941,2.713013 -0.0314,0.965627 -0.052,1.931992 -0.0667,2.898014 -0.0134,0.835696 -0.0123,1.671162 -0.0279,2.506824 -0.0219,0.769621 -0.0367,1.539557 -0.047,2.30942 -0.002,0.603829 0.004,1.207461 0.009,1.811259 0.0301,0.474249 -0.0677,0.98108 0.11834,1.428853 0.11662,0.04934 0.23324,0.09896 0.34985,0.148311 0.009,0.497475 0.71307,0.484047 0.70383,-0.01344 0.11469,-0.0546 0.22948,-0.109211 0.34417,-0.163815 0.16239,-0.450458 0.0392,-0.938805 0.0672,-1.408699 -0.001,-0.593828 -0.0104,-1.187465 -0.008,-1.781287 0.0103,-0.767156 0.0307,-1.533698 0.0512,-2.300635 0.0156,-0.837482 0.019,-1.675439 0.0258,-2.513025 0.0145,-0.95452 0.0353,-1.908687 0.0641,-2.862874 0.032,-0.916381 0.0694,-1.832527 0.093,-2.749186 0.0139,-0.840321 0.0251,-1.681017 0.0419,-2.521293 0.0218,-1.041762 0.0296,-2.083667 0.0537,-3.125391 0.0207,-1.02558 0.0418,-2.051291 0.0651,-3.076815 0.0198,-0.826184 0.0431,-1.652298 0.0656,-2.478401 0.0201,-0.768582 0.0221,-1.537001 0.016,-2.305803 -0.004,-0.862805 -0.007,-1.725825 0.0129,-2.588472 0.0358,-1.04937 0.0776,-2.09879 0.18345,-3.143994 0.0475,-0.454171 0.10047,-0.908022 0.14935,-1.362191 -0.15421,-0.108655 -0.2948,-0.31978 -0.37569,-0.640788 -0.0887,-0.352144 -0.15331,-0.710982 -0.26045,-1.058333 -0.049,-0.189458 -0.13003,-0.361402 -0.24081,-0.521415 -0.0319,-0.04011 -0.0662,-0.07763 -0.10232,-0.113689 z" />
      <path
         id="path16760"
         style="fill:url(#linearGradient635);fill-opacity:1;stroke:#008000;stroke-width:0;stroke-dasharray:none;stroke-opacity:1"
         d="m 166.38933,47.018319 c -0.33566,-2.48e-4 -0.67187,0.222752 -0.71417,0.695564 h 0.001 c -0.25004,1.302937 -0.29376,2.642396 -0.35863,3.96565 -0.074,1.62268 -0.10612,3.246805 -0.11421,4.87102 -0.002,1.47807 -0.0102,2.955772 -0.0129,4.433838 0.007,1.339269 -0.0259,2.678258 -0.0646,4.016809 -0.0365,1.365874 -0.0702,2.732035 -0.10542,4.097941 -0.0295,1.245438 -0.0593,2.490494 -0.0739,3.736206 -0.005,1.01575 -0.005,2.031734 0.0129,3.04736 0.0158,0.763049 0.004,1.526287 -0.0109,2.289266 -0.0101,0.616378 -0.0228,1.233155 -0.0351,1.849499 -0.0173,0.487693 -0.0166,0.975562 -0.0176,1.463477 2.6e-4,0.470386 -0.041,0.484918 0.45578,0.615466 -0.008,0.497491 0.69508,0.508844 0.70332,0.01137 0.50862,-0.115866 0.46106,-0.137511 0.47387,-0.615466 0.006,-0.477534 -0.002,-0.955167 0.0207,-1.432471 0.0198,-0.619329 0.0356,-1.238745 0.047,-1.858285 0.0157,-0.776932 0.0279,-1.554024 0.032,-2.331124 0.008,-1.005582 -0.0109,-2.01128 -0.004,-3.01687 0.0184,-1.237896 0.0426,-2.475351 0.0755,-3.712951 0.039,-1.364839 0.0702,-2.729955 0.10749,-4.094841 0.0391,-1.353681 0.0738,-2.70787 0.0636,-4.062284 0.003,-1.47703 0.004,-2.953705 0.003,-4.430737 0.004,-1.602328 0.024,-3.204567 0.0842,-4.805909 0.0491,-1.302608 0.14113,-2.606898 0.14417,-3.909322 0.0479,-0.535853 -0.3322,-0.822925 -0.71261,-0.823205 z" />
      <path
         id="path16764"
         style="fill:url(#linearGradient637);fill-opacity:1;stroke:#008000;stroke-width:0;stroke-dasharray:none;stroke-opacity:1"
         d="m 164.96978,45.374491 c 0.004,0.006 0.008,0.012 0.0124,0.01809 0.17338,0.270175 0.31299,0.557319 0.38499,0.872298 0.0961,0.392953 0.17207,0.789926 0.20877,1.193209 0.006,0.07059 0.009,0.137318 0.007,0.199988 0.13489,0.153404 0.26037,0.315031 0.37518,0.485242 0.52765,0.859617 1.74305,0.113407 1.21543,-0.746208 -0.27389,-0.482547 -0.63687,-0.89875 -1.03612,-1.280025 -0.26496,-0.237104 -0.5432,-0.458884 -0.81338,-0.689881 -0.0102,-0.0086 -0.0203,-0.01724 -0.0305,-0.02584 -0.0957,0.01047 -0.20459,0.0025 -0.32401,-0.02687 z m -1.2914,0.398426 -0.0584,0.169498 c 0.17074,0.160867 0.35654,0.304022 0.53743,0.453203 -0.0468,-0.119651 -0.10765,-0.232266 -0.1819,-0.339514 -0.0858,-0.107718 -0.18873,-0.199066 -0.29714,-0.283187 z" />
      <path
         style="fill:url(#linearGradient639);fill-opacity:1;stroke:#008000;stroke-width:0;stroke-dasharray:none;stroke-opacity:1"
         id="path16766"
         d="m 160.76927,43.931302 c -0.61383,-0.385307 -1.23609,-0.756449 -1.835,-1.164955 -0.4657,-0.256161 -0.83249,-0.688025 -1.32662,-0.887457 -0.0866,0.02416 -0.17316,0.04834 -0.25973,0.0725 -0.40093,-0.294654 -0.81764,0.272348 -0.4167,0.567002 v 0 c 7.9e-4,0.08845 0.002,0.176887 0.003,0.265332 0.34986,0.43688 0.89684,0.674282 1.33754,1.006739 0.62871,0.386699 1.25623,0.775997 1.90169,1.134444 0.70259,0.421552 1.29876,-0.572056 0.59617,-0.993609 z" />
      <path
         id="path16768"
         style="fill:url(#linearGradient641);fill-opacity:1;stroke:#008000;stroke-width:0;stroke-dasharray:none;stroke-opacity:1"
         d="m 163.26859,43.236637 c 0.002,0.0091 0.003,0.01783 0.005,0.02635 0.008,-0.0019 0.016,-0.0039 0.0248,-0.0062 -0.01,-0.0068 -0.0197,-0.01333 -0.0294,-0.02015 z" />
      <path
         id="path17018"
         style="fill:url(#linearGradient643);fill-opacity:1;stroke:#008000;stroke-width:0;stroke-dasharray:none;stroke-opacity:1"
         d="m 173.22767,75.322017 c -0.0394,4.53e-4 -0.0784,0.0072 -0.11576,0.02067 -0.001,0.08559 -0.002,0.171247 -0.004,0.256832 -0.0243,1.39607 -0.0726,2.79133 -0.13178,4.186308 -0.0126,0.199366 -0.0384,0.689203 -0.0744,1.051098 0.32811,0.01717 0.66823,-0.199292 0.68833,-0.663525 0.0474,-0.688394 0.0702,-1.378246 0.1018,-2.067574 0.0309,-0.541391 0.0629,-1.082206 0.11886,-1.621607 0.0398,-0.400126 0.0247,-0.423791 -0.23255,-0.731221 0.0463,-0.276021 -0.15297,-0.433257 -0.35088,-0.430982 z" />
      <path
         id="path17068"
         style="fill:url(#linearGradient645);fill-opacity:1;stroke:#008000;stroke-width:0;stroke-dasharray:none;stroke-opacity:1"
         d="m 170.1028,52.749235 c -0.10172,0.0027 -0.20266,0.02815 -0.29353,0.07596 -0.008,0.407121 -0.0153,0.814279 -0.015,1.221631 0.0166,1.190479 -0.0181,2.381207 -0.0605,3.570842 -0.0586,1.113858 -0.11462,2.227535 -0.17312,3.341398 -0.0568,1.061364 -0.11465,2.122835 -0.15865,3.184818 -0.0369,1.052852 -0.0638,2.106025 -0.0718,3.159497 -0.0118,0.984519 -0.006,1.968939 0.0326,2.952792 0.0305,0.930167 0.0813,1.859131 0.10594,2.789494 0.0192,0.940133 0.0291,1.88079 0.0424,2.821016 0.0231,0.895168 0.0263,1.790224 0.0253,2.685624 0.002,0.374143 0.006,0.748278 0.01,1.122412 0.0388,0.0082 0.0774,0.01672 0.11524,0.02739 -0.005,0.131779 0.0418,0.229482 0.11214,0.294039 -0.006,-0.365537 0.009,-0.732158 5.1e-4,-1.097091 0.0107,-0.647485 0.0357,-1.294855 0.0589,-1.942 0.0191,-0.690954 0.0313,-1.381553 0.0393,-2.072742 0.014,-0.847525 0.0328,-1.695352 0.0625,-2.54248 0.0307,-0.950484 0.0657,-1.900483 0.0956,-2.850989 0.0274,-1.032122 0.0332,-2.06452 0.0331,-3.096969 3.1e-4,-1.113969 0.007,-2.227939 5.2e-4,-3.341915 0.004,-1.128104 0.0175,-2.256255 0.0847,-3.382739 0.0596,-1.202624 0.12643,-2.404868 0.17363,-3.608048 0.021,-0.81134 0.0315,-1.624015 0.0718,-2.434477 0.0153,-0.307668 0.10911,-0.522642 0.23461,-0.646989 -0.1312,-0.156958 -0.3294,-0.235735 -0.52606,-0.230477 z" />
      <path
         id="path17070"
         style="fill:url(#linearGradient647);fill-opacity:1;stroke:#008000;stroke-width:0;stroke-dasharray:none;stroke-opacity:1"
         d="m 171.91405,53.536267 c -0.17425,0.0061 -0.34596,0.07756 -0.46818,0.215491 0.0418,0.771055 0.063,1.543525 0.0744,2.315621 0.0231,1.220658 -0.0314,2.440447 -0.0811,3.659725 -0.0525,1.107609 -0.0661,2.21669 -0.0631,3.325378 0.003,1.115348 0.0189,2.230695 0.0119,3.346049 -0.0135,1.041584 -0.0157,2.082932 -0.0393,3.124357 -0.0291,0.954003 -0.0647,1.907892 -0.0956,2.861841 -0.0193,0.838315 -0.0415,1.676551 -0.0475,2.515092 -0.007,0.70065 -0.01,1.401458 -0.0367,2.10168 -0.0259,0.639723 -0.0493,1.279604 -0.0599,1.91978 -0.0173,0.523392 0.0308,1.048948 -0.008,1.570963 0.19792,0.112216 0.49881,0.02822 0.52969,-0.290938 0.0606,-0.0049 0.12185,-0.0043 0.18293,-0.0062 0.006,-0.190835 0.0128,-0.362571 0.016,-0.462504 0.0702,-1.387449 0.13431,-2.775139 0.19431,-4.163053 0.0443,-1.082366 0.0729,-2.165707 0.12247,-3.247864 0.0122,-0.265544 0.0906,-0.455838 0.1974,-0.571542 0.01,-0.106187 0.0187,-0.212271 0.0305,-0.318326 0.0669,-0.680683 0.12668,-1.362554 0.16743,-2.045354 0.0543,-0.886053 0.0994,-1.772617 0.13126,-2.659786 0.0348,-0.914536 0.0526,-1.829304 0.0398,-2.744535 -0.005,-0.997959 -0.0195,-1.995855 -0.0398,-2.993616 -0.0254,-1.202188 -0.0569,-2.404008 -0.0625,-3.606498 0.001,-1.033942 0.0536,-2.070192 -0.005,-3.102653 0.0268,-0.500645 -0.33662,-0.755524 -0.69092,-0.743107 z" />
    </g>
    <text
       xml:space="preserve"
       style="font-size:25.4px;line-height:0.6;font-family:'Noto Mono';-inkscape-font-specification:'Noto Mono';display:inline;fill:#eaeaea;fill-opacity:1;stroke:#ffffff;stroke-width:0.4;stroke-dasharray:none;stroke-opacity:1"
       x="186.54262"
       y="61.967869"
       id="text703-6"><tspan
         id="tspan701-1"
         style="font-style:normal;font-variant:normal;font-weight:normal;font-stretch:normal;font-family:'David CLM';-inkscape-font-specification:'David CLM';fill:#eaeaea;fill-opacity:1;stroke:#ffffff;stroke-width:0.4;stroke-dasharray:none;stroke-opacity:1"
         x="186.54262"
         y="61.967869">Sitrus</tspan><tspan
         style="font-style:normal;font-variant:normal;font-weight:normal;font-stretch:normal;font-family:'David CLM';-inkscape-font-specification:'David CLM';fill:#eaeaea;fill-opacity:1;stroke:#ffffff;stroke-width:0.4;stroke-dasharray:none;stroke-opacity:1"
         x="186.54262"
         y="77.20787"
         id="tspan705-3" /></text>
    <text
       xml:space="preserve"
       style="font-size:25.4px;line-height:0.6;font-family:'Noto Mono';-inkscape-font-specification:'Noto Mono';fill:#f2ad3c;fill-opacity:1;stroke:#ffffff;stroke-width:0.4;stroke-dasharray:none;stroke-opacity:1"
       x="185.67905"
       y="61.906555"
       id="text703"><tspan
         id="tspan701"
         style="font-style:normal;font-variant:normal;font-weight:normal;font-stretch:normal;font-family:'David CLM';-inkscape-font-specification:'David CLM';fill:#f2ad3c;fill-opacity:1;stroke:#ffffff;stroke-width:0.4;stroke-dasharray:none;stroke-opacity:1"
         x="185.67905"
         y="61.906555">Sitrus</tspan><tspan
         style="font-style:normal;font-variant:normal;font-weight:normal;font-stretch:normal;font-family:'David CLM';-inkscape-font-specification:'David CLM';fill:#f2ad3c;fill-opacity:1;stroke:#ffffff;stroke-width:0.4;stroke-dasharray:none;stroke-opacity:1"
         x="185.67905"
         y="77.146553"
         id="tspan705" /></text>
    <text
       xml:space="preserve"
       style="font-style:normal;font-variant:normal;font-weight:normal;font-stretch:normal;font-size:25.4px;font-family:'David CLM';-inkscape-font-specification:'David CLM';display:inline;fill:#eaeaea;fill-opacity:1;stroke:#008000;stroke-width:0"
       x="175.86577"
       y="73.405014"
       id="text8692-7"><tspan
         id="tspan8690-4"
         style="fill:#eaeaea;fill-opacity:1;stroke-width:0"
         x="175.86577"
         y="73.405014">Forlag</tspan></text>
    <text
       xml:space="preserve"
       style="font-style:normal;font-variant:normal;font-weight:normal;font-stretch:normal;font-size:25.4px;font-family:'David CLM';-inkscape-font-specification:'David CLM';fill:#f2ad3c;fill-opacity:1;stroke:#ffffff;stroke-width:0.4;stroke-dasharray:none;stroke-opacity:1"
       x="175.3007"
       y="72.896996"
       id="text8692"><tspan
         id="tspan8690"
         style="stroke:#ffffff;stroke-width:0.4;stroke-dasharray:none;stroke-opacity:1"
         x="175.3007"
         y="72.896996">Forlag</tspan></text>
  </g>
</svg>
