<svg width="431" height="1430" viewBox="0 0 431 1330" fill="none" xmlns="http://www.w3.org/2000/svg">
<path d="M60.0589 190.301L67.0314 183.922L130.817 253.647L122.185 261.545L67.7135 202.002C67.0565 204.839 66.054 207.484 64.7063 209.937C63.3616 212.319 61.7455 214.441 59.8577 216.304L52.1629 207.892C54.1833 205.434 55.8768 202.767 57.2434 199.89C58.647 196.98 59.5854 193.783 60.0589 190.301ZM176.09 214.671C170.63 219.666 164.637 222.708 158.112 223.798C151.624 224.854 144.79 223.754 137.609 220.497C130.465 217.207 123.214 211.54 115.857 203.498C108.5 195.455 103.516 187.749 100.907 180.378C98.3002 172.936 97.828 166.049 99.4899 159.717C101.155 153.315 104.717 147.616 110.177 142.622C115.6 137.66 121.574 134.635 128.099 133.545C134.59 132.418 141.408 133.5 148.552 136.79C155.699 140.01 162.952 145.642 170.309 153.684C177.666 161.726 182.648 169.468 185.254 176.91C187.898 184.318 188.387 191.223 186.722 197.626C185.057 204.028 181.513 209.71 176.09 214.671ZM168.8 206.702C174.776 201.235 177.086 194.649 175.73 186.944C174.341 179.203 169.545 170.85 161.344 161.885C153.143 152.92 145.266 147.421 137.712 145.386C130.124 143.314 123.342 145.012 117.366 150.479C111.463 155.879 109.188 162.467 110.541 170.242C111.86 177.981 116.62 186.332 124.822 195.297C133.023 204.261 140.935 209.763 148.56 211.801C156.15 213.802 162.897 212.102 168.8 206.702ZM214.801 176.818L205.385 166.525C201.706 162.504 199.28 158.556 198.108 154.682C196.972 150.774 196.775 146.854 197.516 142.923C198.294 138.959 199.716 134.846 201.781 130.585L210.543 112.607C212.769 107.928 213.737 103.654 213.45 99.7836C213.162 95.9132 211.482 92.2995 208.411 88.9424C205.171 85.4008 201.286 83.6354 196.755 83.6462C192.262 83.6232 187.82 85.6199 183.43 89.636C179.077 93.6184 176.359 97.8328 175.276 102.279C174.197 106.655 175.159 110.892 178.161 114.989L168.533 123.797C165.112 119.54 163.171 115.048 162.709 110.32C162.284 105.559 163.239 100.788 165.575 96.0083C167.877 91.1915 171.463 86.5556 176.333 82.1007C180.797 78.017 185.593 75.2222 190.721 73.7162C195.849 72.2102 200.828 72.0601 205.658 73.2658C210.491 74.401 214.713 76.9423 218.325 80.8897C221.598 84.4682 223.786 88.193 224.888 92.0641C225.99 95.9353 226.182 99.9607 225.465 104.14C224.786 108.286 223.391 112.577 221.283 117.013L212.391 135.516C210.098 140.121 208.944 144.193 208.928 147.731C208.912 151.269 210.305 154.569 213.106 157.631L216.143 160.952L256.54 123.996L263.829 131.965L214.801 176.818Z" fill="#9CC529" fill-opacity="0.3"/>
<path d="M133.967 316.607C129.83 313.529 126.614 309.974 124.319 305.945C122.025 301.915 120.925 297.694 121.021 293.282C121.143 288.835 122.751 284.496 125.846 280.264L133.982 286.317C131.033 290.28 130.199 294.304 131.48 298.39C132.795 302.502 135.487 306.071 139.554 309.098C144.248 312.59 148.993 313.906 153.791 313.047C158.65 312.18 162.645 309.642 165.775 305.436C172.035 297.022 169.741 288.78 158.894 280.71L141.373 267.672L167.78 238.062L204.075 265.068L198.565 272.473L168.841 250.356L172.605 248.781L153.42 269.992L153.075 268.278C155.028 269.137 157.117 270.286 159.341 271.725C161.591 273.129 163.551 274.452 165.219 275.694C172.311 280.971 176.749 286.73 178.532 292.972C180.315 299.214 178.879 305.464 174.223 311.722C171.067 315.963 167.265 319.076 162.818 321.06C158.397 323.01 153.676 323.656 148.655 322.999C143.695 322.333 138.799 320.202 133.967 316.607ZM170.51 341.853L244.896 307.432L209.852 281.357L215.595 273.639L260.234 306.853L254.646 314.363L181.357 349.924L170.51 341.853Z" fill="#255714" fill-opacity="0.6"/>
<path d="M159.064 449.098C156.386 451.68 153.468 453.43 150.311 454.348C147.176 455.246 144.077 455.316 141.015 454.56C137.953 453.762 135.225 452.121 132.83 449.637L138.078 444.577C140.538 446.998 143.231 448.236 146.158 448.289C149.085 448.3 151.845 447.057 154.437 444.558C156.985 442.101 158.34 439.378 158.501 436.389C158.683 433.38 157.85 430.182 156.003 426.796C154.156 423.368 151.473 419.829 147.954 416.179C147.142 415.336 146.371 414.58 145.64 413.909C144.889 413.216 144.012 412.479 143.008 411.696C144.976 414.3 146.18 416.889 146.621 419.464C147.041 422.018 146.794 424.485 145.881 426.866C144.968 429.204 143.475 431.373 141.402 433.372C138.983 435.704 136.281 437.267 133.296 438.061C130.312 438.813 127.332 438.79 124.355 437.993C121.378 437.154 118.703 435.503 116.33 433.041C113.894 430.514 112.342 427.759 111.675 424.777C111.03 421.773 111.255 418.765 112.349 415.751C113.423 412.715 115.332 409.875 118.075 407.231C120.407 404.982 123.014 403.385 125.896 402.441C128.799 401.475 131.838 401.191 135.013 401.589C138.168 401.965 141.342 403.009 144.535 404.723C147.751 406.415 150.847 408.806 153.824 411.894C158.135 416.365 161.3 420.793 163.32 425.18C165.362 429.545 166.07 433.759 165.444 437.821C164.819 441.841 162.692 445.6 159.064 449.098ZM138.064 427.964C139.662 426.423 140.765 424.672 141.374 422.71C141.983 420.748 142.082 418.798 141.672 416.859C141.262 414.921 140.328 413.196 138.871 411.684C136.455 409.179 133.718 408.005 130.66 408.161C127.624 408.296 124.907 409.52 122.51 411.831C120.048 414.205 118.704 416.896 118.479 419.904C118.255 422.913 119.35 425.67 121.765 428.175C124.16 430.659 126.865 431.844 129.879 431.729C132.873 431.593 135.602 430.338 138.064 427.964ZM196.519 412.988C193.949 415.466 191.158 417.261 188.146 418.372C185.134 419.484 182.127 419.758 179.124 419.194C176.101 418.608 173.319 417.019 170.778 414.427L175.832 409.555C178.205 412.017 180.86 413.041 183.795 412.628C186.752 412.194 189.494 410.759 192.021 408.323C194.937 405.512 196.373 402.419 196.328 399.045C196.285 395.628 195.003 392.613 192.484 390C187.445 384.773 181.556 385.408 174.818 391.905L163.932 402.399L146.692 381.016L169.24 359.278L173.675 363.878L155.209 381.681L154.559 378.932L166.879 394.433L165.669 394.475C166.476 393.238 167.497 391.941 168.731 390.584C169.945 389.206 171.07 388.017 172.106 387.018C176.512 382.77 180.948 380.39 185.412 379.878C189.877 379.365 193.984 381.053 197.732 384.94C200.272 387.575 201.968 390.524 202.821 393.785C203.653 397.025 203.561 400.323 202.545 403.678C201.529 406.99 199.521 410.094 196.519 412.988ZM234.063 376.792C230.866 379.874 227.32 381.793 223.423 382.549C219.549 383.284 215.432 382.732 211.074 380.891C206.737 379.029 202.299 375.745 197.76 371.036C193.221 366.328 190.111 361.784 188.43 357.404C186.75 352.981 186.358 348.858 187.256 345.034C188.154 341.168 190.201 337.694 193.398 334.612C196.572 331.551 200.108 329.643 204.005 328.887C207.88 328.109 211.986 328.651 216.323 330.512C220.66 332.331 225.099 335.595 229.638 340.303C234.177 345.011 237.287 349.577 238.967 353.999C240.669 358.401 241.07 362.535 240.172 366.401C239.274 370.268 237.238 373.731 234.063 376.792ZM229.565 372.127C233.064 368.754 234.346 364.767 233.412 360.167C232.457 355.546 229.449 350.611 224.39 345.363C219.33 340.115 214.519 336.94 209.956 335.838C205.373 334.714 201.331 335.839 197.833 339.212C194.377 342.544 193.116 346.531 194.05 351.173C194.962 355.794 197.949 360.728 203.008 365.977C208.068 371.225 212.9 374.4 217.506 375.503C222.09 376.584 226.11 375.458 229.565 372.127Z" fill="#86952E" fill-opacity="0.6"/>
<path d="M172.1 444.925L176.146 439.824C177.726 437.832 179.366 436.422 181.064 435.595C182.781 434.783 184.572 434.402 186.438 434.452C188.322 434.517 190.322 434.868 192.439 435.504L201.371 438.211C203.691 438.891 205.732 439.021 207.494 438.602C209.256 438.182 210.797 437.141 212.117 435.478C213.509 433.723 214.035 431.802 213.694 429.715C213.372 427.643 212.124 425.744 209.948 424.019C207.791 422.308 205.648 421.367 203.519 421.197C201.423 421.024 199.543 421.781 197.877 423.467L193.106 419.683C194.814 417.792 196.741 416.565 198.885 416.002C201.047 415.454 203.316 415.541 205.691 416.263C208.081 416.968 210.482 418.277 212.895 420.191C215.107 421.946 216.75 423.949 217.823 426.2C218.897 428.451 219.334 430.734 219.136 433.049C218.971 435.36 218.112 437.494 216.561 439.45C215.154 441.223 213.6 442.506 211.898 443.301C210.195 444.095 208.355 444.481 206.376 444.46C204.416 444.454 202.335 444.129 200.135 443.486L190.952 440.758C188.66 440.042 186.699 439.812 185.067 440.066C183.436 440.321 182.018 441.207 180.815 442.724L179.51 444.369L199.527 460.248L196.395 464.196L172.1 444.925ZM216.663 481.346C213.957 479.2 211.903 476.871 210.501 474.358C209.117 471.861 208.425 469.391 208.426 466.949C208.445 464.522 209.209 462.358 210.717 460.457C212.094 458.721 213.724 457.586 215.606 457.053C217.506 456.535 219.503 456.571 221.597 457.16C223.724 457.745 225.793 458.835 227.804 460.43C228.334 460.851 228.824 461.284 229.274 461.731C229.724 462.177 230.175 462.698 230.625 463.294L229.625 464.555C227.797 463.105 225.958 462.138 224.108 461.654C222.273 461.151 220.588 461.08 219.051 461.439C217.515 461.799 216.305 462.537 215.42 463.652C214.347 465.005 213.845 466.483 213.913 468.086C213.996 469.67 214.546 471.268 215.562 472.878C216.611 474.484 218.022 475.991 219.795 477.397C222.756 479.747 225.437 481.098 227.836 481.453C230.235 481.807 232.044 481.217 233.262 479.681C234.248 478.438 234.621 477.066 234.382 475.566C234.161 474.08 233.509 472.461 232.427 470.709L225.811 459.564C225.007 458.212 224.315 456.68 223.736 454.97C223.175 453.274 222.95 451.531 223.059 449.742C223.168 447.952 223.846 446.271 225.093 444.699C226.5 442.926 228.25 441.752 230.342 441.179C232.435 440.605 234.728 440.682 237.22 441.407C239.745 442.129 242.332 443.542 244.983 445.644C247.414 447.573 249.238 449.705 250.454 452.039C251.702 454.37 252.293 456.685 252.226 458.985C252.173 461.266 251.422 463.321 249.972 465.149C248.841 466.575 247.424 467.61 245.721 468.255C244.051 468.896 242.215 469.033 240.213 468.666C238.244 468.295 236.235 467.297 234.188 465.673C233.695 465.282 233.241 464.877 232.827 464.46C232.447 464.039 232.047 463.528 231.63 462.929L232.717 461.558C234.198 462.732 235.728 463.544 237.308 463.993C238.902 464.424 240.402 464.467 241.807 464.122C243.23 463.792 244.413 463.033 245.356 461.844C246.255 460.711 246.705 459.43 246.707 458.002C246.741 456.569 246.341 455.121 245.508 453.656C244.707 452.187 243.503 450.814 241.894 449.538C240.34 448.306 238.746 447.443 237.112 446.951C235.51 446.454 234.026 446.335 232.661 446.592C231.31 446.831 230.243 447.444 229.46 448.431C228.488 449.656 228.116 450.969 228.344 452.371C228.605 453.769 229.259 455.33 230.304 457.053L236.921 468.198C238.689 471.15 239.735 473.811 240.058 476.182C240.382 478.553 239.659 480.854 237.89 483.084C236.454 484.894 234.63 486.067 232.416 486.605C230.217 487.124 227.773 486.957 225.084 486.105C222.395 485.252 219.588 483.666 216.663 481.346Z" fill="#9CC529" fill-opacity="0.6"/>
<path d="M156.051 546.39C154.974 547.528 153.774 548.481 152.451 549.248C151.127 549.991 149.756 550.495 148.336 550.758C146.916 550.997 145.517 550.923 144.139 550.537C142.761 550.15 141.467 549.384 140.256 548.238L143.006 545.333C144.07 546.294 145.211 546.847 146.429 546.99C147.648 547.134 148.856 546.935 150.056 546.396C151.267 545.844 152.394 545.017 153.436 543.915C155.04 542.221 155.872 540.518 155.931 538.807C155.99 537.096 155.403 535.656 154.168 534.487C153.381 533.743 152.502 533.277 151.53 533.092C150.558 532.906 149.502 533.077 148.361 533.603C147.22 534.106 146.001 535.041 144.707 536.409L142.266 538.987L140.015 536.856L141.665 535.113C143.338 533.346 144.304 531.622 144.565 529.941C144.825 528.259 144.338 526.834 143.103 525.666C142.014 524.634 140.705 524.175 139.175 524.288C137.646 524.401 136.159 525.219 134.715 526.744C133.604 527.919 132.855 529.195 132.468 530.573C132.07 531.94 132.351 533.388 133.312 534.918L130.563 537.823C129.33 536.288 128.621 534.746 128.437 533.195C128.253 531.643 128.495 530.128 129.162 528.648C129.816 527.156 130.785 525.732 132.068 524.377C133.501 522.864 135.044 521.766 136.7 521.084C138.355 520.402 139.97 520.163 141.543 520.368C143.129 520.56 144.526 521.229 145.737 522.375C146.935 523.509 147.637 524.828 147.843 526.331C148.049 527.811 147.769 529.416 147.003 531.147C148.778 530.096 150.567 529.564 152.37 529.55C154.185 529.523 155.831 530.209 157.308 531.607C158.615 532.845 159.45 534.289 159.814 535.942C160.177 537.571 160.053 539.289 159.443 541.098C158.82 542.895 157.689 544.659 156.051 546.39ZM154.787 500.523L157.296 497.872L172.474 512.24L176.221 508.282L178.617 510.551L174.871 514.509L180.426 519.768L177.779 522.564L172.224 517.305L161.053 529.106L158.874 527.043L154.787 500.523ZM159.219 504.787L162.071 523.666L170.148 515.133L159.219 504.787ZM195.56 504.654C193.864 506.445 191.944 507.6 189.801 508.119C187.669 508.625 185.371 508.423 182.905 507.512C180.451 506.589 177.905 504.878 175.266 502.381C172.628 499.883 170.786 497.44 169.742 495.052C168.698 492.64 168.376 490.362 168.777 488.217C169.177 486.048 170.225 484.068 171.921 482.277C173.605 480.498 175.519 479.349 177.662 478.83C179.793 478.3 182.086 478.497 184.54 479.42C186.993 480.319 189.539 482.018 192.178 484.516C194.816 487.013 196.658 489.468 197.703 491.88C198.759 494.28 199.087 496.564 198.686 498.732C198.286 500.901 197.244 502.874 195.56 504.654ZM192.945 502.179C194.801 500.218 195.412 497.973 194.776 495.444C194.129 492.903 192.335 490.241 189.394 487.457C186.452 484.673 183.702 483.033 181.142 482.537C178.569 482.03 176.355 482.757 174.499 484.717C172.666 486.654 172.067 488.899 172.703 491.451C173.327 493.993 175.109 496.655 178.051 499.439C180.992 502.224 183.754 503.863 186.338 504.358C188.909 504.842 191.112 504.115 192.945 502.179Z" fill="#255714" fill-opacity="0.6"/>
<path d="M202.933 531.211C202.034 530.431 201.356 529.558 200.897 528.591C200.439 527.624 200.259 526.633 200.357 525.62C200.461 524.599 200.907 523.628 201.692 522.707L203.459 524.241C202.712 525.102 202.451 526.014 202.675 526.976C202.907 527.945 203.465 528.813 204.349 529.579C205.368 530.464 206.438 530.849 207.557 530.734C208.69 530.618 209.653 530.103 210.446 529.189C212.032 527.361 211.646 525.425 209.289 523.38L205.482 520.078L212.07 513.72L219.956 520.561L218.561 522.17L212.102 516.567L212.996 516.27L208.214 520.82L208.165 520.419C208.599 520.651 209.06 520.951 209.547 521.321C210.041 521.683 210.469 522.021 210.831 522.335C212.372 523.672 213.294 525.074 213.597 526.541C213.899 528.008 213.461 529.422 212.281 530.782C211.482 531.703 210.553 532.354 209.496 532.734C208.445 533.106 207.347 533.173 206.203 532.935C205.073 532.697 203.983 532.122 202.933 531.211ZM216.064 542.602C214.946 541.632 214.204 540.512 213.838 539.241C213.478 537.976 213.54 536.593 214.022 535.091C214.511 533.596 215.47 532.025 216.898 530.379C218.327 528.732 219.743 527.564 221.148 526.876C222.566 526.187 223.924 525.935 225.22 526.12C226.53 526.303 227.744 526.88 228.862 527.85C229.973 528.813 230.711 529.93 231.078 531.201C231.451 532.465 231.393 533.844 230.904 535.339C230.428 536.833 229.476 538.404 228.048 540.051C226.619 541.697 225.196 542.865 223.777 543.554C222.366 544.25 221.006 544.506 219.695 544.322C218.385 544.139 217.175 543.565 216.064 542.602ZM217.48 540.971C218.704 542.032 220.065 542.34 221.565 541.893C223.071 541.439 224.62 540.294 226.212 538.458C227.805 536.623 228.716 534.931 228.947 533.384C229.184 531.828 228.69 530.52 227.466 529.459C226.258 528.41 224.897 528.11 223.383 528.557C221.876 528.997 220.326 530.135 218.734 531.971C217.142 533.806 216.231 535.505 216.001 537.067C215.778 538.621 216.271 539.922 217.48 540.971ZM229.52 554.274C228.402 553.305 227.659 552.184 227.293 550.913C226.934 549.648 226.995 548.265 227.477 546.763C227.966 545.268 228.925 543.698 230.354 542.051C231.782 540.404 233.199 539.237 234.603 538.549C236.022 537.86 237.379 537.607 238.675 537.792C239.985 537.975 241.199 538.552 242.317 539.522C243.428 540.485 244.166 541.602 244.533 542.874C244.906 544.137 244.848 545.517 244.359 547.012C243.883 548.506 242.932 550.076 241.503 551.723C240.075 553.37 238.651 554.538 237.232 555.227C235.822 555.922 234.461 556.178 233.151 555.995C231.84 555.811 230.63 555.238 229.52 554.274ZM230.935 552.643C232.159 553.704 233.52 554.012 235.02 553.565C236.526 553.111 238.075 551.966 239.667 550.131C241.26 548.295 242.171 546.603 242.402 545.056C242.639 543.501 242.145 542.192 240.922 541.131C239.713 540.082 238.352 539.782 236.838 540.23C235.331 540.67 233.782 541.808 232.189 543.643C230.597 545.479 229.686 547.177 229.456 548.739C229.234 550.293 229.726 551.594 230.935 552.643Z" fill="#86952E" fill-opacity="0.47"/>
<path d="M181.648 569.617C181.074 570.108 180.438 570.379 179.739 570.431C179.043 570.48 178.347 570.335 177.65 569.997C176.95 569.655 176.309 569.144 175.727 568.464C175.041 567.662 174.574 566.874 174.326 566.099C174.075 565.321 174.041 564.589 174.226 563.905C174.411 563.221 174.811 562.616 175.426 562.089C175.852 561.725 176.296 561.487 176.759 561.374C177.222 561.254 177.674 561.256 178.115 561.379C178.559 561.498 178.965 561.734 179.331 562.085L178.362 562.914C178.013 562.621 177.651 562.459 177.277 562.43C176.904 562.401 176.525 562.551 176.141 562.879C175.488 563.438 175.217 564.16 175.329 565.044C175.437 565.925 175.909 566.854 176.744 567.831C176.865 567.971 177.008 568.131 177.175 568.311C177.339 568.487 177.5 568.645 177.659 568.785C177.261 568.25 177.038 567.754 176.988 567.296C176.939 566.831 177.013 566.41 177.209 566.032C177.405 565.653 177.671 565.321 178.005 565.035C178.438 564.665 178.907 564.428 179.412 564.326C179.92 564.22 180.417 564.252 180.904 564.421C181.392 564.583 181.822 564.882 182.196 565.319C182.573 565.76 182.802 566.235 182.883 566.745C182.96 567.251 182.894 567.755 182.685 568.257C182.476 568.751 182.13 569.205 181.648 569.617ZM180.946 568.797C181.379 568.426 181.629 567.992 181.697 567.493C181.764 566.995 181.612 566.529 181.242 566.096C180.861 565.652 180.422 565.426 179.922 565.419C179.419 565.408 178.951 565.588 178.518 565.958C178.233 566.202 178.032 566.482 177.915 566.799C177.795 567.113 177.761 567.435 177.813 567.765C177.866 568.088 178.01 568.387 178.244 568.66C178.614 569.093 179.051 569.315 179.553 569.326C180.056 569.337 180.52 569.161 180.946 568.797ZM185.353 566.212L184.446 565.152C184.092 564.737 183.862 564.335 183.758 563.944C183.658 563.549 183.651 563.157 183.738 562.767C183.829 562.373 183.985 561.967 184.206 561.548L185.142 559.78C185.38 559.32 185.491 558.896 185.475 558.508C185.459 558.12 185.303 557.754 185.007 557.408C184.695 557.043 184.313 556.854 183.86 556.84C183.411 556.822 182.961 557.007 182.508 557.394C182.06 557.777 181.774 558.189 181.651 558.63C181.529 559.064 181.611 559.491 181.897 559.91L180.905 560.758C180.578 560.321 180.399 559.866 180.368 559.392C180.342 558.915 180.453 558.441 180.703 557.971C180.949 557.497 181.323 557.046 181.824 556.617C182.284 556.224 182.773 555.96 183.29 555.827C183.808 555.694 184.306 555.695 184.785 555.832C185.264 555.961 185.677 556.229 186.025 556.636C186.34 557.005 186.547 557.384 186.644 557.775C186.741 558.165 186.747 558.568 186.661 558.984C186.579 559.396 186.426 559.82 186.2 560.256L185.25 562.076C185.005 562.528 184.876 562.932 184.863 563.285C184.849 563.639 184.978 563.973 185.247 564.289L185.54 564.631L189.701 561.072L190.403 561.893L185.353 566.212ZM189.061 550.467L189.893 549.755L193.968 554.52L195.211 553.458L195.854 554.21L194.612 555.273L196.103 557.017L195.226 557.767L193.734 556.023L190.029 559.192L189.444 558.508L189.061 550.467ZM190.248 551.879L190.504 557.601L193.183 555.31L190.248 551.879Z" fill="#9CC529" fill-opacity="0.63"/>
<path d="M52.0589 676.301L59.0314 669.922L122.817 739.647L114.185 747.545L59.7135 688.002C59.0565 690.839 58.054 693.484 56.7063 695.937C55.3616 698.319 53.7455 700.441 51.8577 702.304L44.1629 693.892C46.1833 691.434 47.8768 688.767 49.2434 685.89C50.647 682.98 51.5854 679.783 52.0589 676.301ZM168.09 700.671C162.63 705.666 156.637 708.708 150.112 709.798C143.624 710.854 136.79 709.754 129.609 706.497C122.465 703.207 115.214 697.54 107.857 689.498C100.5 681.455 95.5161 673.749 92.9066 666.378C90.3002 658.936 89.828 652.049 91.4899 645.717C93.1549 639.315 96.7174 633.616 102.177 628.622C107.6 623.66 113.574 620.635 120.099 619.545C126.59 618.418 133.408 619.5 140.552 622.79C147.699 626.01 154.952 631.642 162.309 639.684C169.666 647.726 174.648 655.468 177.254 662.91C179.898 670.318 180.387 677.223 178.722 683.626C177.057 690.028 173.513 695.71 168.09 700.671ZM160.8 692.702C166.776 687.235 169.086 680.649 167.73 672.944C166.341 665.203 161.545 656.85 153.344 647.885C145.143 638.92 137.266 633.421 129.712 631.386C122.124 629.314 115.342 631.012 109.366 636.479C103.463 641.879 101.188 648.467 102.541 656.242C103.86 663.981 108.62 672.332 116.822 681.297C125.023 690.261 132.935 695.763 140.56 697.801C148.15 699.802 154.897 698.102 160.8 692.702ZM206.801 662.818L197.385 652.525C193.706 648.504 191.28 644.556 190.108 640.682C188.972 636.774 188.775 632.854 189.516 628.923C190.294 624.959 191.716 620.846 193.781 616.585L202.543 598.607C204.769 593.928 205.737 589.654 205.45 585.784C205.162 581.913 203.482 578.299 200.411 574.942C197.171 571.401 193.286 569.635 188.755 569.646C184.262 569.623 179.82 571.62 175.43 575.636C171.077 579.618 168.359 583.833 167.276 588.279C166.197 592.655 167.159 596.892 170.161 600.989L160.533 609.797C157.112 605.54 155.171 601.048 154.709 596.32C154.284 591.559 155.239 586.788 157.575 582.008C159.877 577.191 163.463 572.556 168.333 568.101C172.797 564.017 177.593 561.222 182.721 559.716C187.849 558.21 192.828 558.06 197.658 559.266C202.491 560.401 206.713 562.942 210.325 566.89C213.598 570.468 215.786 574.193 216.888 578.064C217.99 581.935 218.182 585.961 217.465 590.14C216.786 594.286 215.391 598.577 213.283 603.013L204.391 621.516C202.098 626.121 200.944 630.193 200.928 633.731C200.912 637.269 202.305 640.569 205.106 643.631L208.143 646.952L248.54 609.996L255.829 617.965L206.801 662.818Z" fill="#9CC529" fill-opacity="0.3"/>
<path d="M139.967 749.607C135.83 746.529 132.614 742.974 130.319 738.945C128.025 734.915 126.925 730.694 127.021 726.282C127.143 721.835 128.751 717.496 131.846 713.264L139.982 719.317C137.033 723.28 136.199 727.304 137.48 731.39C138.795 735.502 141.487 739.071 145.554 742.098C150.248 745.59 154.993 746.906 159.791 746.047C164.65 745.18 168.645 742.642 171.775 738.436C178.035 730.022 175.741 721.78 164.894 713.71L147.373 700.672L173.78 671.062L210.075 698.068L204.565 705.473L174.841 683.356L178.605 681.781L159.42 702.992L159.075 701.278C161.028 702.137 163.117 703.286 165.341 704.725C167.591 706.129 169.551 707.452 171.219 708.694C178.311 713.971 182.749 719.73 184.532 725.972C186.315 732.214 184.879 738.464 180.223 744.722C177.067 748.963 173.265 752.076 168.818 754.06C164.397 756.01 159.676 756.656 154.655 755.999C149.695 755.333 144.799 753.202 139.967 749.607ZM176.51 774.853L250.896 740.432L215.852 714.357L221.595 706.639L266.234 739.853L260.646 747.363L187.357 782.924L176.51 774.853Z" fill="#255714" fill-opacity="0.6"/>
<path d="M166.064 868.098C163.386 870.68 160.468 872.43 157.311 873.348C154.176 874.246 151.077 874.316 148.015 873.56C144.953 872.762 142.225 871.121 139.83 868.637L145.078 863.577C147.538 865.998 150.231 867.236 153.158 867.289C156.085 867.3 158.845 866.057 161.437 863.558C163.985 861.101 165.34 858.378 165.501 855.389C165.683 852.38 164.85 849.182 163.003 845.796C161.156 842.368 158.473 838.829 154.954 835.179C154.142 834.336 153.371 833.58 152.64 832.909C151.889 832.216 151.012 831.479 150.008 830.696C151.976 833.3 153.18 835.889 153.621 838.464C154.041 841.018 153.794 843.485 152.881 845.866C151.968 848.204 150.475 850.373 148.402 852.372C145.983 854.704 143.281 856.267 140.296 857.061C137.312 857.813 134.332 857.79 131.355 856.993C128.378 856.154 125.703 854.503 123.33 852.041C120.894 849.514 119.342 846.759 118.675 843.777C118.03 840.773 118.255 837.765 119.349 834.751C120.423 831.715 122.332 828.875 125.075 826.231C127.407 823.982 130.014 822.385 132.896 821.441C135.799 820.475 138.838 820.191 142.013 820.589C145.168 820.965 148.342 822.009 151.535 823.723C154.751 825.415 157.847 827.806 160.824 830.894C165.135 835.365 168.3 839.793 170.32 844.18C172.362 848.545 173.07 852.759 172.444 856.821C171.819 860.841 169.692 864.6 166.064 868.098ZM145.064 846.964C146.662 845.423 147.765 843.672 148.374 841.71C148.983 839.748 149.082 837.798 148.672 835.859C148.262 833.921 147.328 832.196 145.871 830.684C143.455 828.179 140.718 827.005 137.66 827.161C134.624 827.296 131.907 828.52 129.51 830.831C127.048 833.205 125.704 835.896 125.479 838.904C125.255 841.913 126.35 844.67 128.765 847.175C131.16 849.659 133.865 850.844 136.879 850.729C139.873 850.593 142.602 849.338 145.064 846.964ZM203.519 831.988C200.949 834.466 198.158 836.261 195.146 837.372C192.134 838.484 189.127 838.758 186.124 838.194C183.101 837.608 180.319 836.019 177.778 833.427L182.832 828.555C185.205 831.017 187.86 832.041 190.795 831.628C193.752 831.194 196.494 829.759 199.021 827.323C201.937 824.512 203.373 821.419 203.328 818.045C203.285 814.628 202.003 811.613 199.484 809C194.445 803.773 188.556 804.408 181.818 810.905L170.932 821.399L153.692 800.016L176.24 778.278L180.675 782.878L162.209 800.681L161.559 797.932L173.879 813.433L172.669 813.475C173.476 812.238 174.497 810.941 175.731 809.584C176.945 808.206 178.07 807.017 179.106 806.018C183.512 801.77 187.948 799.39 192.412 798.878C196.877 798.365 200.984 800.053 204.732 803.94C207.272 806.575 208.968 809.524 209.821 812.785C210.653 816.025 210.561 819.323 209.545 822.678C208.529 825.99 206.521 829.094 203.519 831.988ZM241.063 795.792C237.866 798.874 234.32 800.793 230.423 801.549C226.549 802.284 222.432 801.732 218.074 799.891C213.737 798.029 209.299 794.745 204.76 790.036C200.221 785.328 197.111 780.784 195.43 776.404C193.75 771.981 193.358 767.858 194.256 764.034C195.154 760.168 197.201 756.694 200.398 753.612C203.572 750.551 207.108 748.643 211.005 747.887C214.88 747.109 218.986 747.651 223.323 749.512C227.66 751.331 232.099 754.595 236.638 759.303C241.177 764.011 244.287 768.577 245.967 772.999C247.669 777.401 248.07 781.535 247.172 785.401C246.274 789.268 244.238 792.731 241.063 795.792ZM236.565 791.127C240.064 787.754 241.346 783.767 240.412 779.167C239.457 774.546 236.449 769.611 231.39 764.363C226.33 759.115 221.519 755.94 216.956 754.838C212.373 753.714 208.331 754.839 204.833 758.212C201.377 761.544 200.116 765.531 201.05 770.173C201.962 774.794 204.949 779.728 210.008 784.977C215.068 790.225 219.9 793.4 224.506 794.503C229.09 795.584 233.11 794.458 236.565 791.127Z" fill="#86952E" fill-opacity="0.6"/>
<path d="M167.1 865.925L171.146 860.824C172.726 858.832 174.366 857.422 176.064 856.595C177.781 855.783 179.572 855.402 181.438 855.452C183.322 855.517 185.322 855.868 187.439 856.504L196.371 859.211C198.691 859.891 200.732 860.021 202.494 859.602C204.256 859.182 205.797 858.141 207.117 856.478C208.509 854.723 209.035 852.802 208.694 850.715C208.372 848.643 207.124 846.744 204.948 845.019C202.791 843.308 200.648 842.367 198.519 842.197C196.423 842.024 194.543 842.781 192.877 844.467L188.106 840.683C189.814 838.792 191.741 837.565 193.885 837.002C196.047 836.454 198.316 836.541 200.691 837.263C203.081 837.968 205.482 839.277 207.895 841.191C210.107 842.946 211.75 844.949 212.823 847.2C213.897 849.451 214.334 851.734 214.136 854.049C213.971 856.36 213.112 858.494 211.561 860.45C210.154 862.223 208.6 863.506 206.898 864.301C205.195 865.095 203.355 865.481 201.376 865.46C199.416 865.454 197.335 865.129 195.135 864.486L185.952 861.758C183.66 861.042 181.699 860.812 180.067 861.066C178.436 861.321 177.018 862.207 175.815 863.724L174.51 865.369L194.527 881.248L191.395 885.196L167.1 865.925ZM211.663 902.346C208.957 900.2 206.903 897.871 205.501 895.358C204.117 892.861 203.425 890.391 203.426 887.949C203.445 885.522 204.209 883.358 205.717 881.457C207.094 879.721 208.724 878.586 210.606 878.053C212.506 877.535 214.503 877.571 216.597 878.16C218.724 878.745 220.793 879.835 222.804 881.43C223.334 881.851 223.824 882.284 224.274 882.731C224.724 883.177 225.175 883.698 225.625 884.294L224.625 885.555C222.797 884.105 220.958 883.138 219.108 882.654C217.273 882.151 215.588 882.08 214.051 882.439C212.515 882.799 211.305 883.537 210.42 884.652C209.347 886.005 208.845 887.483 208.913 889.086C208.996 890.67 209.546 892.268 210.562 893.878C211.611 895.484 213.022 896.991 214.795 898.397C217.756 900.747 220.437 902.098 222.836 902.453C225.235 902.807 227.044 902.217 228.262 900.681C229.248 899.438 229.621 898.066 229.382 896.566C229.161 895.08 228.509 893.461 227.427 891.709L220.811 880.564C220.007 879.212 219.315 877.68 218.736 875.97C218.175 874.274 217.95 872.531 218.059 870.742C218.168 868.952 218.846 867.271 220.093 865.699C221.5 863.926 223.25 862.752 225.342 862.179C227.435 861.605 229.728 861.682 232.22 862.407C234.745 863.129 237.332 864.542 239.983 866.644C242.414 868.573 244.238 870.705 245.454 873.039C246.702 875.37 247.293 877.685 247.226 879.985C247.173 882.266 246.422 884.321 244.972 886.149C243.841 887.575 242.424 888.61 240.721 889.255C239.051 889.896 237.215 890.033 235.213 889.666C233.244 889.295 231.235 888.297 229.188 886.673C228.695 886.282 228.241 885.877 227.827 885.46C227.447 885.039 227.047 884.528 226.63 883.929L227.717 882.558C229.198 883.732 230.728 884.544 232.308 884.993C233.902 885.424 235.402 885.467 236.807 885.122C238.23 884.792 239.413 884.033 240.356 882.844C241.255 881.711 241.705 880.43 241.707 879.002C241.741 877.569 241.341 876.121 240.508 874.656C239.707 873.187 238.503 871.814 236.894 870.538C235.34 869.306 233.746 868.443 232.112 867.951C230.51 867.454 229.026 867.335 227.661 867.592C226.31 867.831 225.243 868.444 224.46 869.431C223.488 870.656 223.116 871.969 223.344 873.371C223.605 874.769 224.259 876.33 225.304 878.053L231.921 889.198C233.689 892.15 234.735 894.811 235.058 897.182C235.382 899.553 234.659 901.854 232.89 904.084C231.454 905.894 229.63 907.067 227.416 907.605C225.217 908.124 222.773 907.957 220.084 907.105C217.395 906.252 214.588 904.666 211.663 902.346Z" fill="#9CC529" fill-opacity="0.6"/>
<path d="M151.051 967.39C149.974 968.528 148.774 969.481 147.451 970.248C146.127 970.991 144.756 971.495 143.336 971.758C141.916 971.997 140.517 971.923 139.139 971.537C137.761 971.15 136.467 970.384 135.256 969.238L138.006 966.333C139.07 967.294 140.211 967.847 141.429 967.99C142.648 968.134 143.856 967.935 145.056 967.396C146.267 966.844 147.394 966.017 148.436 964.915C150.04 963.221 150.872 961.518 150.931 959.807C150.99 958.096 150.403 956.656 149.168 955.487C148.381 954.743 147.502 954.277 146.53 954.092C145.558 953.906 144.502 954.077 143.361 954.603C142.22 955.106 141.001 956.041 139.707 957.409L137.266 959.987L135.015 957.856L136.665 956.113C138.338 954.346 139.304 952.622 139.565 950.941C139.825 949.259 139.338 947.834 138.103 946.666C137.014 945.634 135.705 945.175 134.175 945.288C132.646 945.401 131.159 946.219 129.715 947.744C128.604 948.919 127.855 950.195 127.468 951.573C127.07 952.94 127.351 954.388 128.312 955.918L125.563 958.823C124.33 957.288 123.621 955.746 123.437 954.195C123.253 952.643 123.495 951.128 124.162 949.648C124.816 948.156 125.785 946.732 127.068 945.377C128.501 943.864 130.044 942.766 131.7 942.084C133.355 941.402 134.97 941.163 136.543 941.368C138.129 941.56 139.526 942.229 140.737 943.375C141.935 944.509 142.637 945.828 142.843 947.331C143.049 948.811 142.769 950.416 142.003 952.147C143.778 951.096 145.567 950.564 147.37 950.55C149.185 950.523 150.831 951.209 152.308 952.607C153.615 953.845 154.45 955.289 154.814 956.942C155.177 958.571 155.053 960.289 154.443 962.098C153.82 963.895 152.689 965.659 151.051 967.39ZM149.787 921.523L152.296 918.872L167.474 933.24L171.221 929.282L173.617 931.551L169.871 935.509L175.426 940.768L172.779 943.564L167.224 938.305L156.053 950.106L153.874 948.043L149.787 921.523ZM154.219 925.787L157.071 944.666L165.148 936.133L154.219 925.787ZM190.56 925.654C188.864 927.445 186.944 928.6 184.801 929.119C182.669 929.625 180.371 929.423 177.905 928.512C175.451 927.589 172.905 925.878 170.266 923.381C167.628 920.883 165.786 918.44 164.742 916.052C163.698 913.64 163.376 911.362 163.777 909.217C164.177 907.048 165.225 905.068 166.921 903.277C168.605 901.498 170.519 900.349 172.662 899.83C174.793 899.3 177.086 899.497 179.54 900.42C181.993 901.319 184.539 903.018 187.178 905.516C189.816 908.013 191.658 910.468 192.703 912.88C193.759 915.28 194.087 917.564 193.686 919.732C193.286 921.901 192.244 923.874 190.56 925.654ZM187.945 923.179C189.801 921.218 190.412 918.973 189.776 916.444C189.129 913.903 187.335 911.241 184.394 908.457C181.452 905.673 178.702 904.033 176.142 903.537C173.569 903.03 171.355 903.757 169.499 905.717C167.666 907.654 167.067 909.899 167.703 912.451C168.327 914.993 170.109 917.655 173.051 920.439C175.992 923.224 178.754 924.863 181.338 925.358C183.909 925.842 186.112 925.115 187.945 923.179Z" fill="#255714" fill-opacity="0.6"/>
<path d="M197.933 952.211C197.034 951.431 196.356 950.558 195.897 949.591C195.439 948.624 195.259 947.633 195.357 946.62C195.461 945.599 195.907 944.628 196.692 943.707L198.459 945.241C197.712 946.102 197.451 947.014 197.675 947.976C197.907 948.945 198.465 949.813 199.349 950.579C200.368 951.464 201.438 951.849 202.557 951.734C203.69 951.618 204.653 951.103 205.446 950.189C207.032 948.361 206.646 946.425 204.289 944.38L200.482 941.078L207.07 934.72L214.956 941.561L213.561 943.17L207.102 937.567L207.996 937.27L203.214 941.82L203.165 941.419C203.599 941.651 204.06 941.951 204.547 942.321C205.041 942.683 205.469 943.021 205.831 943.335C207.372 944.672 208.294 946.074 208.597 947.541C208.899 949.008 208.461 950.422 207.281 951.782C206.482 952.703 205.553 953.354 204.496 953.734C203.445 954.106 202.347 954.173 201.203 953.935C200.073 953.697 198.983 953.122 197.933 952.211ZM211.064 963.602C209.946 962.632 209.204 961.512 208.838 960.241C208.478 958.976 208.54 957.593 209.022 956.091C209.511 954.596 210.47 953.025 211.898 951.379C213.327 949.732 214.743 948.564 216.148 947.876C217.566 947.187 218.924 946.935 220.22 947.12C221.53 947.303 222.744 947.88 223.862 948.85C224.973 949.813 225.711 950.93 226.078 952.201C226.451 953.465 226.393 954.844 225.904 956.339C225.428 957.833 224.476 959.404 223.048 961.051C221.619 962.697 220.196 963.865 218.777 964.554C217.366 965.25 216.006 965.506 214.695 965.322C213.385 965.139 212.175 964.565 211.064 963.602ZM212.48 961.971C213.704 963.032 215.065 963.34 216.565 962.893C218.071 962.439 219.62 961.294 221.212 959.458C222.805 957.623 223.716 955.931 223.947 954.384C224.184 952.828 223.69 951.52 222.466 950.459C221.258 949.41 219.897 949.11 218.383 949.557C216.876 949.997 215.326 951.135 213.734 952.971C212.142 954.806 211.231 956.505 211.001 958.067C210.778 959.621 211.271 960.922 212.48 961.971ZM224.52 975.274C223.402 974.305 222.659 973.184 222.293 971.913C221.934 970.648 221.995 969.265 222.477 967.763C222.966 966.268 223.925 964.698 225.354 963.051C226.782 961.404 228.199 960.237 229.603 959.549C231.022 958.86 232.379 958.607 233.675 958.792C234.985 958.975 236.199 959.552 237.317 960.522C238.428 961.485 239.166 962.602 239.533 963.874C239.906 965.137 239.848 966.517 239.359 968.012C238.883 969.506 237.932 971.076 236.503 972.723C235.075 974.37 233.651 975.538 232.232 976.227C230.822 976.922 229.461 977.178 228.151 976.995C226.84 976.811 225.63 976.238 224.52 975.274ZM225.935 973.643C227.159 974.704 228.52 975.012 230.02 974.565C231.526 974.111 233.075 972.966 234.667 971.131C236.26 969.295 237.171 967.603 237.402 966.056C237.639 964.501 237.145 963.192 235.922 962.131C234.713 961.082 233.352 960.782 231.838 961.23C230.331 961.67 228.782 962.808 227.189 964.643C225.597 966.479 224.686 968.177 224.456 969.739C224.234 971.293 224.726 972.594 225.935 973.643Z" fill="#86952E" fill-opacity="0.47"/>
<path d="M47.0589 1097.3L54.0314 1090.92L117.817 1160.65L109.185 1168.54L54.7135 1109C54.0565 1111.84 53.054 1114.48 51.7063 1116.94C50.3616 1119.32 48.7455 1121.44 46.8577 1123.3L39.1629 1114.89C41.1833 1112.43 42.8768 1109.77 44.2434 1106.89C45.647 1103.98 46.5854 1100.78 47.0589 1097.3ZM163.09 1121.67C157.63 1126.67 151.637 1129.71 145.112 1130.8C138.624 1131.85 131.79 1130.75 124.609 1127.5C117.465 1124.21 110.214 1118.54 102.857 1110.5C95.4995 1102.46 90.5161 1094.75 87.9066 1087.38C85.3002 1079.94 84.828 1073.05 86.4899 1066.72C88.1549 1060.32 91.7174 1054.62 97.1773 1049.62C102.6 1044.66 108.574 1041.63 115.099 1040.54C121.59 1039.42 128.408 1040.5 135.552 1043.79C142.699 1047.01 149.952 1052.64 157.309 1060.68C164.666 1068.73 169.648 1076.47 172.254 1083.91C174.898 1091.32 175.387 1098.22 173.722 1104.63C172.057 1111.03 168.513 1116.71 163.09 1121.67ZM155.8 1113.7C161.776 1108.23 164.086 1101.65 162.73 1093.94C161.341 1086.2 156.545 1077.85 148.344 1068.88C140.143 1059.92 132.266 1054.42 124.712 1052.39C117.124 1050.31 110.342 1052.01 104.366 1057.48C98.4633 1062.88 96.1884 1069.47 97.5412 1077.24C98.8604 1084.98 103.62 1093.33 111.822 1102.3C120.023 1111.26 127.935 1116.76 135.56 1118.8C143.15 1120.8 149.897 1119.1 155.8 1113.7ZM201.801 1083.82L192.385 1073.52C188.706 1069.5 186.28 1065.56 185.108 1061.68C183.972 1057.77 183.775 1053.85 184.516 1049.92C185.294 1045.96 186.716 1041.85 188.781 1037.58L197.543 1019.61C199.769 1014.93 200.737 1010.65 200.45 1006.78C200.162 1002.91 198.482 999.299 195.411 995.942C192.171 992.401 188.286 990.635 183.755 990.646C179.262 990.623 174.82 992.62 170.43 996.636C166.077 1000.62 163.359 1004.83 162.276 1009.28C161.197 1013.66 162.159 1017.89 165.161 1021.99L155.533 1030.8C152.112 1026.54 150.171 1022.05 149.709 1017.32C149.284 1012.56 150.239 1007.79 152.575 1003.01C154.877 998.191 158.463 993.556 163.333 989.101C167.797 985.017 172.593 982.222 177.721 980.716C182.849 979.21 187.828 979.06 192.658 980.266C197.491 981.401 201.713 983.942 205.325 987.89C208.598 991.468 210.786 995.193 211.888 999.064C212.99 1002.94 213.182 1006.96 212.465 1011.14C211.786 1015.29 210.391 1019.58 208.283 1024.01L199.391 1042.52C197.098 1047.12 195.944 1051.19 195.928 1054.73C195.912 1058.27 197.305 1061.57 200.106 1064.63L203.143 1067.95L243.54 1031L250.829 1038.96L201.801 1083.82Z" fill="#9CC529" fill-opacity="0.3"/>
<path d="M160.933 77.2109C160.034 76.4311 159.356 75.5577 158.897 74.5907C158.439 73.6237 158.259 72.6334 158.357 71.6198C158.461 70.5987 158.907 69.6279 159.692 68.7073L161.459 70.2407C160.712 71.1018 160.451 72.0135 160.675 72.9759C160.907 73.9448 161.465 74.8126 162.349 75.5793C163.368 76.4639 164.438 76.8488 165.557 76.734C166.69 76.6181 167.653 76.1032 168.446 75.1892C170.032 73.3612 169.646 71.4249 167.289 69.3804L163.482 66.0778L170.07 59.7195L177.956 66.5607L176.561 68.1697L170.102 62.567L170.996 62.2696L166.214 66.8197L166.165 66.4191C166.599 66.6506 167.06 66.951 167.547 67.3206C168.041 67.6825 168.469 68.0208 168.831 68.3353C170.372 69.6721 171.294 71.0741 171.597 72.5413C171.899 74.0084 171.461 75.4219 170.281 76.7816C169.482 77.7031 168.553 78.3538 167.496 78.7337C166.445 79.106 165.347 79.1732 164.203 78.9354C163.073 78.6966 161.983 78.1218 160.933 77.2109ZM174.064 88.6022C172.946 87.6323 172.204 86.5118 171.838 85.2406C171.478 83.9759 171.54 82.5927 172.022 81.0912C172.511 79.5961 173.47 78.0253 174.898 76.3785C176.327 74.7318 177.743 73.5644 179.148 72.8764C180.566 72.1874 181.924 71.9351 183.22 72.1196C184.53 72.3031 185.744 72.8798 186.862 73.8496C187.973 74.8129 188.711 75.9302 189.078 77.2014C189.451 78.4651 189.393 79.8444 188.904 81.3395C188.428 82.8335 187.476 84.4039 186.048 86.0506C184.619 87.6973 183.196 88.8652 181.777 89.5542C180.366 90.2498 179.006 90.5058 177.695 90.3223C176.385 90.1388 175.175 89.5654 174.064 88.6022ZM175.48 86.9706C176.704 88.0321 178.065 88.3396 179.565 87.8929C181.071 87.4387 182.62 86.2938 184.212 84.4582C185.805 82.6227 186.716 80.9311 186.947 79.3836C187.184 77.8285 186.69 76.5202 185.466 75.4586C184.258 74.4101 182.897 74.1097 181.383 74.5574C179.876 74.9975 178.326 76.1353 176.734 77.9709C175.142 79.8065 174.231 81.5051 174.001 83.0667C173.778 84.6208 174.271 85.9221 175.48 86.9706ZM187.52 100.274C186.402 99.3047 185.659 98.1841 185.293 96.9129C184.934 95.6482 184.995 94.2651 185.477 92.7635C185.966 91.2685 186.925 89.6976 188.354 88.0509C189.782 86.4041 191.199 85.2368 192.603 84.5487C194.022 83.8597 195.379 83.6075 196.675 83.792C197.985 83.9755 199.199 84.5521 200.317 85.522C201.428 86.4852 202.166 87.6025 202.533 88.8737C202.906 90.1374 202.848 91.5168 202.359 93.0118C201.883 94.5058 200.932 96.0762 199.503 97.7229C198.075 99.3697 196.651 100.538 195.232 101.227C193.822 101.922 192.461 102.178 191.151 101.995C189.84 101.811 188.63 101.238 187.52 100.274ZM188.935 98.6429C190.159 99.7044 191.52 100.012 193.02 99.5652C194.526 99.111 196.075 97.9661 197.667 96.1306C199.26 94.295 200.171 92.6034 200.402 91.0559C200.639 89.5008 200.145 88.1925 198.922 87.1309C197.713 86.0824 196.352 85.782 194.838 86.2297C193.331 86.6698 191.782 87.8076 190.189 89.6432C188.597 91.4788 187.686 93.1774 187.456 94.739C187.234 96.2931 187.726 97.5944 188.935 98.6429Z" fill="#86952E" fill-opacity="0.47"/>
<path d="M144.648 112.617C144.074 113.108 143.438 113.379 142.739 113.431C142.043 113.48 141.347 113.335 140.65 112.997C139.95 112.655 139.309 112.144 138.727 111.464C138.041 110.662 137.574 109.874 137.326 109.099C137.075 108.321 137.041 107.589 137.226 106.905C137.411 106.221 137.811 105.616 138.426 105.089C138.852 104.725 139.296 104.487 139.759 104.374C140.222 104.254 140.674 104.256 141.115 104.379C141.559 104.498 141.965 104.734 142.331 105.085L141.362 105.914C141.013 105.621 140.651 105.459 140.277 105.43C139.904 105.401 139.525 105.551 139.141 105.879C138.488 106.438 138.217 107.16 138.329 108.044C138.437 108.925 138.909 109.854 139.744 110.831C139.865 110.971 140.008 111.131 140.175 111.311C140.339 111.487 140.5 111.645 140.659 111.785C140.261 111.25 140.038 110.754 139.988 110.296C139.939 109.831 140.013 109.41 140.209 109.032C140.405 108.653 140.671 108.321 141.005 108.035C141.438 107.665 141.907 107.428 142.412 107.326C142.92 107.22 143.417 107.252 143.904 107.421C144.392 107.583 144.822 107.882 145.196 108.319C145.573 108.76 145.802 109.235 145.883 109.745C145.96 110.251 145.894 110.755 145.685 111.257C145.476 111.751 145.13 112.205 144.648 112.617ZM143.946 111.797C144.379 111.426 144.629 110.992 144.697 110.493C144.764 109.995 144.612 109.529 144.242 109.096C143.861 108.652 143.422 108.426 142.922 108.419C142.419 108.408 141.951 108.588 141.518 108.958C141.233 109.202 141.032 109.482 140.915 109.799C140.795 110.113 140.761 110.435 140.813 110.765C140.866 111.088 141.01 111.387 141.244 111.66C141.614 112.093 142.051 112.315 142.553 112.326C143.056 112.337 143.52 112.161 143.946 111.797ZM148.353 109.212L147.446 108.152C147.092 107.737 146.862 107.335 146.758 106.944C146.658 106.549 146.651 106.157 146.738 105.767C146.829 105.373 146.985 104.967 147.206 104.548L148.142 102.78C148.38 102.32 148.491 101.896 148.475 101.508C148.459 101.12 148.303 100.754 148.007 100.408C147.695 100.043 147.313 99.8536 146.86 99.8396C146.411 99.8223 145.961 100.007 145.508 100.394C145.06 100.777 144.774 101.189 144.651 101.63C144.529 102.064 144.611 102.491 144.897 102.91L143.905 103.758C143.578 103.321 143.399 102.866 143.368 102.392C143.342 101.915 143.453 101.441 143.703 100.971C143.949 100.497 144.323 100.046 144.824 99.6169C145.284 99.2237 145.773 98.9604 146.29 98.827C146.808 98.6936 147.306 98.6952 147.785 98.8318C148.264 98.9614 148.677 99.2295 149.025 99.6361C149.34 100.005 149.547 100.384 149.644 100.775C149.741 101.165 149.747 101.568 149.661 101.984C149.579 102.396 149.426 102.82 149.2 103.256L148.25 105.076C148.005 105.528 147.876 105.932 147.863 106.285C147.849 106.639 147.978 106.973 148.247 107.289L148.54 107.631L152.701 104.072L153.403 104.893L148.353 109.212ZM152.061 93.4672L152.893 92.7554L156.968 97.5203L158.211 96.4576L158.854 97.21L157.612 98.2727L159.103 100.017L158.226 100.767L156.734 99.0234L153.029 102.192L152.444 101.508L152.061 93.4672ZM153.248 94.879L153.504 100.601L156.183 98.3102L153.248 94.879Z" fill="#9CC529" fill-opacity="0.63"/>
<path d="M138.702 86.0597C137.625 87.1975 136.425 88.15 135.102 88.9172C133.778 89.6609 132.407 90.1642 130.987 90.4271C129.567 90.6664 128.168 90.5928 126.79 90.2062C125.412 89.8195 124.118 89.0534 122.907 87.9076L125.657 85.0027C126.721 85.9638 127.862 86.5161 129.08 86.6596C130.298 86.803 131.507 86.6048 132.707 86.065C133.918 85.513 135.045 84.6863 136.087 83.5849C137.691 81.8904 138.523 80.1875 138.582 78.4764C138.641 76.7653 138.054 75.3254 136.819 74.1568C136.032 73.412 135.153 72.9469 134.181 72.7613C133.209 72.5757 132.153 72.7462 131.012 73.2726C129.87 73.7755 128.652 74.7108 127.358 76.0785L124.917 78.6566L122.666 76.5255L124.316 74.7826C125.989 73.0154 126.955 71.2912 127.216 69.61C127.476 67.9287 126.989 66.5037 125.754 65.3351C124.665 64.3039 123.356 63.8446 121.826 63.9573C120.296 64.07 118.81 64.8889 117.366 66.4139C116.255 67.588 115.506 68.8641 115.119 70.2423C114.72 71.609 115.002 73.0573 115.963 74.5872L113.214 77.4921C111.981 75.9579 111.272 74.4152 111.088 72.864C110.904 71.3128 111.146 69.7972 111.812 68.317C112.467 66.8253 113.436 65.4017 114.719 64.0461C116.152 62.5331 117.695 61.4356 119.351 60.7536C121.006 60.0715 122.621 59.8327 124.194 60.0372C125.779 60.2295 127.177 60.8985 128.387 62.0443C129.586 63.1786 130.288 64.4975 130.494 66.0009C130.7 67.4807 130.42 69.0859 129.654 70.8164C131.429 69.7656 133.218 69.2332 135.021 69.2191C136.836 69.1929 138.482 69.8787 139.959 71.2765C141.266 72.514 142.101 73.9589 142.465 75.6112C142.828 77.24 142.704 78.9588 142.093 80.7675C141.471 82.5648 140.34 84.3289 138.702 86.0597ZM137.438 40.1923L139.947 37.5416L155.125 51.9094L158.871 47.9515L161.268 50.2201L157.521 54.178L163.077 59.4371L160.43 62.2331L154.875 56.974L143.703 68.7751L141.525 66.7128L137.438 40.1923ZM141.869 44.4565L144.721 63.3358L152.799 54.8027L141.869 44.4565ZM178.21 44.3231C176.515 46.1145 174.595 47.2695 172.452 47.788C170.32 48.2945 168.021 48.0922 165.556 47.1813C163.102 46.2583 160.556 44.5479 157.917 42.0501C155.279 39.5524 153.437 37.1094 152.393 34.7211C151.349 32.3093 151.027 30.031 151.428 27.8861C151.828 25.7176 152.876 23.7377 154.572 21.9464C156.256 20.1671 158.17 19.0182 160.313 18.4997C162.444 17.9696 164.737 18.1661 167.191 19.0892C169.644 19.9886 172.19 21.6873 174.829 24.185C177.467 26.6828 179.309 29.1376 180.354 31.5493C181.41 33.949 181.738 36.2331 181.337 38.4016C180.937 40.57 179.895 42.5439 178.21 44.3231ZM175.596 41.8483C177.452 39.8875 178.063 37.6425 177.427 35.1134C176.78 32.5728 174.986 29.9104 172.044 27.1262C169.103 24.342 166.353 22.7021 163.792 22.2064C161.22 21.6992 159.006 22.426 157.15 24.3868C155.317 26.3234 154.718 28.5681 155.354 31.1208C155.978 33.662 157.76 36.3247 160.701 39.1089C163.643 41.8931 166.405 43.5327 168.989 44.0278C171.56 44.5114 173.763 43.7849 175.596 41.8483Z" fill="#255714" fill-opacity="0.6"/>
</svg>
